<svg width="484" height="39" viewBox="0 0 484 39" fill="none" xmlns="http://www.w3.org/2000/svg">
<g filter="url(#filter0_d_1177_5812)">
<path d="M13.2594 31.9111V25.6693H4.7197V21.4509L11.9562 4.1314H18.6096V21.4166H21.1818V25.6693H18.6096V31.9111H13.2594ZM9.07529 21.4166H13.2594V9.85883L9.07529 21.4166ZM31.9649 32.4256C30.2958 32.4256 28.9011 32.094 27.7808 31.431C26.6605 30.7451 25.8145 29.8076 25.2429 28.6187C24.6713 27.4298 24.3855 26.0465 24.3855 24.4689V11.8823C24.3855 10.2589 24.6484 8.84138 25.1743 7.62959C25.723 6.39494 26.5576 5.43465 27.6779 4.74873C28.7982 4.06281 30.2272 3.71985 31.9649 3.71985C33.7026 3.71985 35.1201 4.06281 36.2176 4.74873C37.3379 5.43465 38.161 6.39494 38.6869 7.62959C39.2356 8.84138 39.51 10.2589 39.51 11.8823V24.4689C39.51 26.0237 39.2242 27.4069 38.6526 28.6187C38.081 29.8076 37.235 30.7451 36.1147 31.431C34.9944 32.094 33.6111 32.4256 31.9649 32.4256ZM31.9649 27.3155C32.5136 27.3155 32.9023 27.144 33.131 26.801C33.3825 26.4352 33.5311 26.0237 33.5768 25.5664C33.6454 25.0862 33.6797 24.6747 33.6797 24.3317V12.0195C33.6797 11.6308 33.6568 11.1964 33.6111 10.7162C33.5654 10.2132 33.4168 9.7788 33.1653 9.41298C32.9366 9.02429 32.5365 8.82995 31.9649 8.82995C31.3933 8.82995 30.9817 9.02429 30.7302 9.41298C30.5016 9.7788 30.3644 10.2132 30.3187 10.7162C30.273 11.1964 30.2501 11.6308 30.2501 12.0195V24.3317C30.2501 24.6747 30.2844 25.0862 30.353 25.5664C30.4216 26.0237 30.5702 26.4352 30.7988 26.801C31.0503 27.144 31.439 27.3155 31.9649 27.3155ZM51.5069 32.4256C49.8378 32.4256 48.4431 32.094 47.3228 31.431C46.2025 30.7451 45.3565 29.8076 44.7849 28.6187C44.2133 27.4298 43.9275 26.0465 43.9275 24.4689V11.8823C43.9275 10.2589 44.1904 8.84138 44.7163 7.62959C45.265 6.39494 46.0996 5.43465 47.2199 4.74873C48.3402 4.06281 49.7692 3.71985 51.5069 3.71985C53.2446 3.71985 54.6621 4.06281 55.7596 4.74873C56.8799 5.43465 57.703 6.39494 58.2289 7.62959C58.7776 8.84138 59.052 10.2589 59.052 11.8823V24.4689C59.052 26.0237 58.7662 27.4069 58.1946 28.6187C57.623 29.8076 56.777 30.7451 55.6567 31.431C54.5364 32.094 53.1531 32.4256 51.5069 32.4256ZM51.5069 27.3155C52.0556 27.3155 52.4443 27.144 52.673 26.801C52.9245 26.4352 53.0731 26.0237 53.1188 25.5664C53.1874 25.0862 53.2217 24.6747 53.2217 24.3317V12.0195C53.2217 11.6308 53.1988 11.1964 53.1531 10.7162C53.1074 10.2132 52.9588 9.7788 52.7073 9.41298C52.4786 9.02429 52.0785 8.82995 51.5069 8.82995C50.9353 8.82995 50.5237 9.02429 50.2722 9.41298C50.0436 9.7788 49.9064 10.2132 49.8607 10.7162C49.815 11.1964 49.7921 11.6308 49.7921 12.0195V24.3317C49.7921 24.6747 49.8264 25.0862 49.895 25.5664C49.9636 26.0237 50.1122 26.4352 50.3408 26.801C50.5923 27.144 50.981 27.3155 51.5069 27.3155ZM63.5724 31.9111L64.0525 4.1314H70.6373L73.6897 20.2848L76.9821 4.1314H83.3269L83.807 31.9111H79.4514L78.937 13.4256L75.7131 31.9111H71.8377L68.4081 13.2884L67.9966 31.9111H63.5724ZM88.509 31.9111V4.1314H94.648V27.7613H101.027V31.9111H88.509ZM103.817 31.9111L112.323 4.1314H115.341L106.801 31.9111H103.817ZM126.243 32.4256C124.208 32.4256 122.664 32.0712 121.613 31.3624C120.584 30.6308 119.886 29.6133 119.521 28.3101C119.155 27.0068 118.972 25.4978 118.972 23.783H124.494C124.494 24.8347 124.551 25.6921 124.665 26.3552C124.779 27.0182 124.985 27.4984 125.282 27.7956C125.602 28.07 126.048 28.1957 126.62 28.1729C127.214 28.15 127.637 27.9099 127.889 27.4527C128.14 26.9954 128.289 26.3438 128.335 25.4978C128.403 24.629 128.438 23.5886 128.438 22.3769C128.438 21.4623 128.38 20.6506 128.266 19.9418C128.175 19.2331 127.969 18.6729 127.649 18.2613C127.352 17.8269 126.894 17.6097 126.277 17.6097C125.705 17.6097 125.237 17.8155 124.871 18.227C124.505 18.6386 124.242 19.2788 124.082 20.1476H119.143L119.658 4.1314H132.622V8.93284H124.253L123.945 14.6603C124.173 14.3402 124.608 14.0658 125.248 13.8372C125.888 13.5857 126.574 13.4256 127.306 13.357C128.723 13.197 129.912 13.4599 130.873 14.1458C131.856 14.8089 132.587 15.8263 133.068 17.1982C133.571 18.57 133.822 20.2505 133.822 22.2397C133.822 23.7258 133.731 25.0977 133.548 26.3552C133.365 27.5898 133.01 28.6644 132.484 29.579C131.959 30.4707 131.193 31.1681 130.187 31.6711C129.181 32.1741 127.866 32.4256 126.243 32.4256ZM145.064 32.4256C143.395 32.4256 142 32.094 140.88 31.431C139.759 30.7451 138.913 29.8076 138.342 28.6187C137.77 27.4298 137.484 26.0465 137.484 24.4689V11.8823C137.484 10.2589 137.747 8.84138 138.273 7.62959C138.822 6.39494 139.657 5.43465 140.777 4.74873C141.897 4.06281 143.326 3.71985 145.064 3.71985C146.802 3.71985 148.219 4.06281 149.317 4.74873C150.437 5.43465 151.26 6.39494 151.786 7.62959C152.335 8.84138 152.609 10.2589 152.609 11.8823V24.4689C152.609 26.0237 152.323 27.4069 151.752 28.6187C151.18 29.8076 150.334 30.7451 149.214 31.431C148.093 32.094 146.71 32.4256 145.064 32.4256ZM145.064 27.3155C145.613 27.3155 146.001 27.144 146.23 26.801C146.481 26.4352 146.63 26.0237 146.676 25.5664C146.744 25.0862 146.779 24.6747 146.779 24.3317V12.0195C146.779 11.6308 146.756 11.1964 146.71 10.7162C146.664 10.2132 146.516 9.7788 146.264 9.41298C146.036 9.02429 145.635 8.82995 145.064 8.82995C144.492 8.82995 144.081 9.02429 143.829 9.41298C143.601 9.7788 143.463 10.2132 143.418 10.7162C143.372 11.1964 143.349 11.6308 143.349 12.0195V24.3317C143.349 24.6747 143.383 25.0862 143.452 25.5664C143.521 26.0237 143.669 26.4352 143.898 26.801C144.149 27.144 144.538 27.3155 145.064 27.3155ZM164.606 32.4256C162.937 32.4256 161.542 32.094 160.422 31.431C159.301 30.7451 158.455 29.8076 157.884 28.6187C157.312 27.4298 157.026 26.0465 157.026 24.4689V11.8823C157.026 10.2589 157.289 8.84138 157.815 7.62959C158.364 6.39494 159.199 5.43465 160.319 4.74873C161.439 4.06281 162.868 3.71985 164.606 3.71985C166.344 3.71985 167.761 4.06281 168.859 4.74873C169.979 5.43465 170.802 6.39494 171.328 7.62959C171.877 8.84138 172.151 10.2589 172.151 11.8823V24.4689C172.151 26.0237 171.865 27.4069 171.294 28.6187C170.722 29.8076 169.876 30.7451 168.756 31.431C167.635 32.094 166.252 32.4256 164.606 32.4256ZM164.606 27.3155C165.155 27.3155 165.543 27.144 165.772 26.801C166.023 26.4352 166.172 26.0237 166.218 25.5664C166.286 25.0862 166.321 24.6747 166.321 24.3317V12.0195C166.321 11.6308 166.298 11.1964 166.252 10.7162C166.206 10.2132 166.058 9.7788 165.806 9.41298C165.578 9.02429 165.177 8.82995 164.606 8.82995C164.034 8.82995 163.623 9.02429 163.371 9.41298C163.143 9.7788 163.005 10.2132 162.96 10.7162C162.914 11.1964 162.891 11.6308 162.891 12.0195V24.3317C162.891 24.6747 162.925 25.0862 162.994 25.5664C163.063 26.0237 163.211 26.4352 163.44 26.801C163.691 27.144 164.08 27.3155 164.606 27.3155ZM184.011 32.3227C182.09 32.3227 180.57 31.9226 179.449 31.1223C178.352 30.3221 177.563 29.2018 177.083 27.7613C176.626 26.298 176.397 24.6175 176.397 22.7198V13.3913C176.397 11.425 176.648 9.72164 177.152 8.28121C177.655 6.84078 178.512 5.73188 179.724 4.95451C180.958 4.15427 182.627 3.75415 184.731 3.75415C186.789 3.75415 188.401 4.09711 189.567 4.78303C190.756 5.46894 191.602 6.4178 192.105 7.62959C192.608 8.84138 192.859 10.2589 192.859 11.8823V13.6657H186.857V11.4021C186.857 10.8077 186.812 10.2589 186.72 9.75594C186.651 9.25293 186.469 8.85281 186.171 8.55558C185.897 8.23548 185.44 8.07544 184.8 8.07544C184.136 8.07544 183.656 8.25835 183.359 8.62417C183.062 8.96713 182.867 9.40155 182.776 9.92742C182.707 10.4533 182.673 11.002 182.673 11.5736V24.4346C182.673 25.0519 182.73 25.635 182.845 26.1837C182.982 26.7096 183.21 27.144 183.531 27.487C183.874 27.807 184.354 27.9671 184.971 27.9671C185.611 27.9671 186.103 27.7956 186.446 27.4527C186.789 27.1097 187.029 26.6639 187.166 26.1151C187.303 25.5664 187.372 24.9833 187.372 24.366V21.1079H184.868V17.5068H192.893V31.9111H188.846L188.503 29.6133C188.138 30.3907 187.6 31.0423 186.892 31.5682C186.183 32.0712 185.222 32.3227 184.011 32.3227ZM206.882 31.9111V4.1314H214.53C216.405 4.1314 218.029 4.33718 219.4 4.74873C220.772 5.16028 221.835 5.90336 222.59 6.97797C223.367 8.02971 223.756 9.5273 223.756 11.4707C223.756 12.6139 223.665 13.6314 223.482 14.5231C223.299 15.4148 222.956 16.1921 222.453 16.8552C221.973 17.4954 221.275 18.0327 220.361 18.4671L224.168 31.9111H217.823L214.77 19.4617H213.021V31.9111H206.882ZM213.021 15.9292H214.736C215.605 15.9292 216.279 15.7806 216.76 15.4834C217.24 15.1633 217.571 14.7174 217.754 14.1458C217.96 13.5514 218.063 12.8426 218.063 12.0195C218.063 10.8305 217.846 9.90456 217.411 9.2415C216.977 8.57844 216.177 8.24692 215.01 8.24692H213.021V15.9292ZM235.821 32.3227C233.741 32.3227 232.094 31.9569 230.883 31.2252C229.671 30.4936 228.802 29.4418 228.276 28.07C227.75 26.6981 227.487 25.0634 227.487 23.1657V12.8426C227.487 10.922 227.75 9.28723 228.276 7.93825C228.802 6.58928 229.671 5.5604 230.883 4.85162C232.094 4.11997 233.741 3.75415 235.821 3.75415C237.925 3.75415 239.582 4.11997 240.794 4.85162C242.029 5.5604 242.909 6.58928 243.435 7.93825C243.961 9.28723 244.224 10.922 244.224 12.8426V23.1657C244.224 25.0634 243.961 26.6981 243.435 28.07C242.909 29.4418 242.029 30.4936 240.794 31.2252C239.582 31.9569 237.925 32.3227 235.821 32.3227ZM235.821 27.9671C236.461 27.9671 236.93 27.807 237.227 27.487C237.525 27.1669 237.719 26.7553 237.81 26.2523C237.902 25.7493 237.948 25.2349 237.948 24.709V11.3336C237.948 10.7848 237.902 10.2704 237.81 9.79024C237.719 9.28723 237.525 8.87568 237.227 8.55558C236.93 8.23548 236.461 8.07544 235.821 8.07544C235.227 8.07544 234.781 8.23548 234.484 8.55558C234.186 8.87568 233.992 9.28723 233.901 9.79024C233.809 10.2704 233.763 10.7848 233.763 11.3336V24.709C233.763 25.2349 233.798 25.7493 233.866 26.2523C233.958 26.7553 234.141 27.1669 234.415 27.487C234.712 27.807 235.181 27.9671 235.821 27.9671ZM256.671 32.3227C254.545 32.3227 252.876 31.9797 251.664 31.2938C250.475 30.585 249.64 29.5676 249.16 28.2415C248.68 26.8925 248.44 25.2463 248.44 23.3028V4.1314H254.51V24.2288C254.51 24.8004 254.556 25.372 254.648 25.9436C254.739 26.5152 254.933 26.9839 255.231 27.3498C255.551 27.7156 256.031 27.8985 256.671 27.8985C257.334 27.8985 257.814 27.7156 258.111 27.3498C258.409 26.9839 258.592 26.5152 258.66 25.9436C258.752 25.372 258.797 24.8004 258.797 24.2288V4.1314H264.902V23.3028C264.902 25.2463 264.651 26.8925 264.148 28.2415C263.667 29.5676 262.833 30.585 261.644 31.2938C260.455 31.9797 258.797 32.3227 256.671 32.3227ZM269.494 31.9111V4.1314H273.815L279.508 17.5068V4.1314H284.584V31.9111H280.434L274.741 17.5068V31.9111H269.494ZM289.404 31.9111V4.1314H296.435C298.859 4.1314 300.745 4.44006 302.094 5.05739C303.443 5.65186 304.392 6.60071 304.94 7.90396C305.489 9.18434 305.763 10.8534 305.763 12.9112V22.9942C305.763 25.0748 305.489 26.7782 304.94 28.1043C304.392 29.4075 303.443 30.3678 302.094 30.9851C300.768 31.6025 298.904 31.9111 296.504 31.9111H289.404ZM295.543 27.6584H296.504C297.441 27.6584 298.115 27.5212 298.527 27.2469C298.939 26.9725 299.19 26.561 299.282 26.0122C299.396 25.4635 299.453 24.7776 299.453 23.9545V11.848C299.453 11.0249 299.384 10.3618 299.247 9.85883C299.133 9.35582 298.87 8.99 298.458 8.76136C298.047 8.53272 297.384 8.4184 296.469 8.4184H295.543V27.6584ZM327.603 32.3227C325.5 32.3227 323.831 31.9454 322.596 31.1909C321.384 30.4135 320.527 29.3389 320.024 27.9671C319.521 26.5724 319.269 24.9376 319.269 23.0628V13.0484C319.269 11.1278 319.521 9.48157 320.024 8.10973C320.527 6.71503 321.384 5.64042 322.596 4.88591C323.831 4.1314 325.5 3.75415 327.603 3.75415C329.661 3.75415 331.261 4.09711 332.405 4.78303C333.571 5.44608 334.394 6.3835 334.874 7.59529C335.354 8.80708 335.594 10.2018 335.594 11.7794V14.1801H329.592V11.4021C329.592 10.8534 329.558 10.3275 329.489 9.82453C329.444 9.32152 329.284 8.90997 329.009 8.58988C328.735 8.24692 328.266 8.07544 327.603 8.07544C326.963 8.07544 326.483 8.24692 326.163 8.58988C325.865 8.93284 325.671 9.36725 325.58 9.89312C325.511 10.3961 325.477 10.9334 325.477 11.505V24.5718C325.477 25.1891 325.522 25.7607 325.614 26.2866C325.728 26.7896 325.934 27.2012 326.231 27.5212C326.551 27.8185 327.009 27.9671 327.603 27.9671C328.243 27.9671 328.701 27.807 328.975 27.487C329.249 27.144 329.421 26.7096 329.489 26.1837C329.558 25.6578 329.592 25.1205 329.592 24.5718V21.6566H335.594V24.0574C335.594 25.635 335.354 27.0525 334.874 28.3101C334.417 29.5447 333.605 30.5279 332.439 31.2595C331.296 31.9683 329.684 32.3227 327.603 32.3227ZM347.614 32.3227C345.533 32.3227 343.887 31.9569 342.675 31.2252C341.464 30.4936 340.595 29.4418 340.069 28.07C339.543 26.6981 339.28 25.0634 339.28 23.1657V12.8426C339.28 10.922 339.543 9.28723 340.069 7.93825C340.595 6.58928 341.464 5.5604 342.675 4.85162C343.887 4.11997 345.533 3.75415 347.614 3.75415C349.717 3.75415 351.375 4.11997 352.587 4.85162C353.822 5.5604 354.702 6.58928 355.228 7.93825C355.754 9.28723 356.016 10.922 356.016 12.8426V23.1657C356.016 25.0634 355.754 26.6981 355.228 28.07C354.702 29.4418 353.822 30.4936 352.587 31.2252C351.375 31.9569 349.717 32.3227 347.614 32.3227ZM347.614 27.9671C348.254 27.9671 348.723 27.807 349.02 27.487C349.317 27.1669 349.512 26.7553 349.603 26.2523C349.695 25.7493 349.74 25.2349 349.74 24.709V11.3336C349.74 10.7848 349.695 10.2704 349.603 9.79024C349.512 9.28723 349.317 8.87568 349.02 8.55558C348.723 8.23548 348.254 8.07544 347.614 8.07544C347.02 8.07544 346.574 8.23548 346.276 8.55558C345.979 8.87568 345.785 9.28723 345.693 9.79024C345.602 10.2704 345.556 10.7848 345.556 11.3336V24.709C345.556 25.2349 345.591 25.7493 345.659 26.2523C345.751 26.7553 345.933 27.1669 346.208 27.487C346.505 27.807 346.974 27.9671 347.614 27.9671ZM360.438 31.9111V4.1314H364.76L370.453 17.5068V4.1314H375.529V31.9111H371.379L365.686 17.5068V31.9111H360.438ZM382.853 31.9111V8.69276H378.668V4.1314H393.176V8.69276H389.026V31.9111H382.853ZM393.429 31.9111L398.676 4.1314H405.673L410.851 31.9111H405.193L404.267 26.0465H400.185L399.225 31.9111H393.429ZM400.734 22.3769H403.684L402.209 11.5393L400.734 22.3769ZM414.376 31.9111V4.1314H420.515V31.9111H414.376ZM425.344 31.9111V4.1314H429.665L435.358 17.5068V4.1314H440.434V31.9111H436.284L430.591 17.5068V31.9111H425.344ZM445.254 31.9111V4.1314H457.738V8.31551H451.393V15.209H456.229V19.4617H451.393V27.7613H457.806V31.9111H445.254ZM461.279 31.9111V4.1314H468.927C470.802 4.1314 472.426 4.33718 473.797 4.74873C475.169 5.16028 476.232 5.90336 476.987 6.97797C477.764 8.02971 478.153 9.5273 478.153 11.4707C478.153 12.6139 478.062 13.6314 477.879 14.5231C477.696 15.4148 477.353 16.1921 476.85 16.8552C476.37 17.4954 475.672 18.0327 474.758 18.4671L478.565 31.9111H472.22L469.167 19.4617H467.418V31.9111H461.279ZM467.418 15.9292H469.133C470.002 15.9292 470.676 15.7806 471.157 15.4834C471.637 15.1633 471.968 14.7174 472.151 14.1458C472.357 13.5514 472.46 12.8426 472.46 12.0195C472.46 10.8305 472.243 9.90456 471.808 9.2415C471.374 8.57844 470.574 8.24692 469.407 8.24692H467.418V15.9292Z" fill="white"/>
</g>
<defs>
<filter id="filter0_d_1177_5812" x="-0.000273228" y="-0.000273228" width="483.285" height="38.1461" filterUnits="userSpaceOnUse" color-interpolation-filters="sRGB">
<feFlood flood-opacity="0" result="BackgroundImageFix"/>
<feColorMatrix in="SourceAlpha" type="matrix" values="0 0 0 0 0 0 0 0 0 0 0 0 0 0 0 0 0 0 127 0" result="hardAlpha"/>
<feOffset dy="1"/>
<feGaussianBlur stdDeviation="2.36"/>
<feComposite in2="hardAlpha" operator="out"/>
<feColorMatrix type="matrix" values="0 0 0 0 0 0 0 0 0 0 0 0 0 0 0 0 0 0 0.25 0"/>
<feBlend mode="normal" in2="BackgroundImageFix" result="effect1_dropShadow_1177_5812"/>
<feBlend mode="normal" in="SourceGraphic" in2="effect1_dropShadow_1177_5812" result="shape"/>
</filter>
</defs>
</svg>
