<svg width="153" height="21" viewBox="0 0 153 21" fill="none" xmlns="http://www.w3.org/2000/svg">
<path d="M-1.11386e-06 19.9375L8.736 0.337499H13.216L21.98 19.9375H17.22L10.052 2.6335H11.844L4.648 19.9375H-1.11386e-06ZM4.368 15.7375L5.572 12.2935H15.652L16.884 15.7375H4.368ZM24.0135 19.9375V0.337499H33.5895C36.0535 0.337499 37.9015 0.804165 39.1335 1.7375C40.3842 2.67083 41.0095 3.90283 41.0095 5.4335C41.0095 6.46017 40.7575 7.35617 40.2535 8.1215C39.7495 8.86817 39.0588 9.44683 38.1815 9.8575C37.3042 10.2682 36.2962 10.4735 35.1575 10.4735L35.6895 9.3255C36.9215 9.3255 38.0135 9.53083 38.9655 9.9415C39.9175 10.3335 40.6548 10.9215 41.1775 11.7055C41.7188 12.4895 41.9895 13.4508 41.9895 14.5895C41.9895 16.2695 41.3268 17.5855 40.0015 18.5375C38.6762 19.4708 36.7255 19.9375 34.1495 19.9375H24.0135ZM28.5215 16.5215H33.8135C34.9895 16.5215 35.8762 16.3348 36.4735 15.9615C37.0895 15.5695 37.3975 14.9535 37.3975 14.1135C37.3975 13.2922 37.0895 12.6855 36.4735 12.2935C35.8762 11.8828 34.9895 11.6775 33.8135 11.6775H28.1855V8.3735H33.0295C34.1308 8.3735 34.9708 8.18683 35.5495 7.8135C36.1468 7.4215 36.4455 6.8335 36.4455 6.0495C36.4455 5.28417 36.1468 4.71483 35.5495 4.3415C34.9708 3.9495 34.1308 3.7535 33.0295 3.7535H28.5215V16.5215ZM54.9437 20.2735C53.3943 20.2735 51.957 20.0215 50.6317 19.5175C49.325 19.0135 48.1863 18.3042 47.2157 17.3895C46.2637 16.4748 45.517 15.4015 44.9757 14.1695C44.453 12.9375 44.1917 11.5935 44.1917 10.1375C44.1917 8.6815 44.453 7.3375 44.9757 6.1055C45.517 4.8735 46.273 3.80017 47.2437 2.8855C48.2143 1.97083 49.353 1.2615 50.6597 0.757498C51.9663 0.253499 53.385 0.00149965 54.9157 0.00149965C56.465 0.00149965 57.8837 0.253499 59.1717 0.757498C60.4783 1.2615 61.6077 1.97083 62.5597 2.8855C63.5303 3.80017 64.2863 4.8735 64.8277 6.1055C65.369 7.31883 65.6397 8.66283 65.6397 10.1375C65.6397 11.5935 65.369 12.9468 64.8277 14.1975C64.2863 15.4295 63.5303 16.5028 62.5597 17.4175C61.6077 18.3135 60.4783 19.0135 59.1717 19.5175C57.8837 20.0215 56.4743 20.2735 54.9437 20.2735ZM54.9157 16.4095C55.793 16.4095 56.5957 16.2602 57.3237 15.9615C58.0703 15.6628 58.7237 15.2335 59.2837 14.6735C59.8437 14.1135 60.273 13.4508 60.5717 12.6855C60.889 11.9202 61.0477 11.0708 61.0477 10.1375C61.0477 9.20417 60.889 8.35483 60.5717 7.5895C60.273 6.82417 59.8437 6.1615 59.2837 5.6015C58.7423 5.0415 58.0983 4.61217 57.3517 4.3135C56.605 4.01483 55.793 3.8655 54.9157 3.8655C54.0383 3.8655 53.2263 4.01483 52.4797 4.3135C51.7517 4.61217 51.1077 5.0415 50.5477 5.6015C49.9877 6.1615 49.549 6.82417 49.2317 7.5895C48.933 8.35483 48.7837 9.20417 48.7837 10.1375C48.7837 11.0522 48.933 11.9015 49.2317 12.6855C49.549 13.4508 49.9783 14.1135 50.5197 14.6735C51.0797 15.2335 51.733 15.6628 52.4797 15.9615C53.2263 16.2602 54.0383 16.4095 54.9157 16.4095ZM77.7567 20.2735C74.9753 20.2735 72.8007 19.4988 71.2327 17.9495C69.6647 16.4002 68.8807 14.1882 68.8807 11.3135V0.337499H73.4167V11.1455C73.4167 13.0122 73.7993 14.3562 74.5647 15.1775C75.33 15.9988 76.4033 16.4095 77.7847 16.4095C79.166 16.4095 80.2393 15.9988 81.0047 15.1775C81.77 14.3562 82.1527 13.0122 82.1527 11.1455V0.337499H86.6327V11.3135C86.6327 14.1882 85.8487 16.4002 84.2807 17.9495C82.7127 19.4988 80.538 20.2735 77.7567 20.2735ZM94.8469 19.9375V4.0335H88.5749V0.337499H105.655V4.0335H99.3829V19.9375H94.8469ZM124.733 20.2735C121.952 20.2735 119.777 19.4988 118.209 17.9495C116.641 16.4002 115.857 14.1882 115.857 11.3135V0.337499H120.393V11.1455C120.393 13.0122 120.776 14.3562 121.541 15.1775C122.307 15.9988 123.38 16.4095 124.761 16.4095C126.143 16.4095 127.216 15.9988 127.981 15.1775C128.747 14.3562 129.129 13.0122 129.129 11.1455V0.337499H133.609V11.3135C133.609 14.1882 132.825 16.4002 131.257 17.9495C129.689 19.4988 127.515 20.2735 124.733 20.2735ZM144.532 20.2735C142.964 20.2735 141.461 20.0682 140.024 19.6575C138.586 19.2282 137.429 18.6775 136.552 18.0055L138.092 14.5895C138.932 15.1868 139.921 15.6815 141.06 16.0735C142.217 16.4468 143.384 16.6335 144.56 16.6335C145.456 16.6335 146.174 16.5495 146.716 16.3815C147.276 16.1948 147.686 15.9428 147.948 15.6255C148.209 15.3082 148.34 14.9442 148.34 14.5335C148.34 14.0108 148.134 13.6002 147.724 13.3015C147.313 12.9842 146.772 12.7322 146.1 12.5455C145.428 12.3402 144.681 12.1535 143.86 11.9855C143.057 11.7988 142.245 11.5748 141.424 11.3135C140.621 11.0522 139.884 10.7162 139.212 10.3055C138.54 9.89483 137.989 9.3535 137.56 8.6815C137.149 8.0095 136.944 7.15083 136.944 6.1055C136.944 4.9855 137.242 3.96817 137.84 3.0535C138.456 2.12017 139.37 1.38283 140.584 0.841499C141.816 0.281499 143.356 0.00149965 145.204 0.00149965C146.436 0.00149965 147.649 0.150833 148.844 0.449499C150.038 0.729499 151.093 1.15883 152.008 1.7375L150.608 5.1815C149.693 4.65883 148.778 4.27617 147.864 4.0335C146.949 3.77217 146.053 3.6415 145.176 3.6415C144.298 3.6415 143.58 3.74417 143.02 3.9495C142.46 4.15483 142.058 4.4255 141.816 4.7615C141.573 5.07883 141.452 5.45217 141.452 5.8815C141.452 6.3855 141.657 6.79617 142.068 7.1135C142.478 7.41217 143.02 7.65483 143.692 7.8415C144.364 8.02817 145.101 8.21483 145.904 8.4015C146.725 8.58817 147.537 8.80283 148.34 9.0455C149.161 9.28817 149.908 9.61483 150.58 10.0255C151.252 10.4362 151.793 10.9775 152.204 11.6495C152.633 12.3215 152.848 13.1708 152.848 14.1975C152.848 15.2988 152.54 16.3068 151.924 17.2215C151.308 18.1362 150.384 18.8735 149.152 19.4335C147.938 19.9935 146.398 20.2735 144.532 20.2735Z" fill="#265715"/>
</svg>
