<svg width="373" height="12" viewBox="0 0 373 12" fill="none" xmlns="http://www.w3.org/2000/svg">
<path d="M1.69873e-06 9.26562V0.865624H3.456C4.2 0.865624 4.836 0.985625 5.364 1.22562C5.9 1.46562 6.312 1.80962 6.6 2.25762C6.888 2.70562 7.032 3.23762 7.032 3.85362C7.032 4.46962 6.888 5.00162 6.6 5.44962C6.312 5.89762 5.9 6.24162 5.364 6.48162C4.836 6.72162 4.2 6.84162 3.456 6.84162H0.864002L1.56 6.10962V9.26562H1.69873e-06ZM1.56 6.27762L0.864002 5.52162H3.384C4.072 5.52162 4.588 5.37762 4.932 5.08962C5.284 4.79362 5.46 4.38162 5.46 3.85362C5.46 3.31762 5.284 2.90562 4.932 2.61762C4.588 2.32962 4.072 2.18562 3.384 2.18562H0.864002L1.56 1.41762V6.27762ZM12.3353 9.26562V7.96962L12.2513 7.69362V5.42562C12.2513 4.98562 12.1193 4.64562 11.8553 4.40562C11.5913 4.15762 11.1913 4.03362 10.6553 4.03362C10.2953 4.03362 9.93925 4.08962 9.58725 4.20162C9.24325 4.31362 8.95125 4.46962 8.71125 4.66962L8.12325 3.57762C8.46725 3.31362 8.87525 3.11762 9.34725 2.98962C9.82725 2.85362 10.3233 2.78562 10.8353 2.78562C11.7633 2.78562 12.4793 3.00962 12.9833 3.45762C13.4953 3.89762 13.7513 4.58162 13.7513 5.50962V9.26562H12.3353ZM10.3193 9.34963C9.83925 9.34963 9.41925 9.26963 9.05925 9.10962C8.69925 8.94162 8.41925 8.71362 8.21925 8.42562C8.02725 8.12962 7.93125 7.79762 7.93125 7.42962C7.93125 7.06962 8.01525 6.74562 8.18325 6.45762C8.35925 6.16962 8.64325 5.94162 9.03525 5.77362C9.42725 5.60562 9.94725 5.52162 10.5953 5.52162H12.4553V6.51762H10.7033C10.1913 6.51762 9.84725 6.60162 9.67125 6.76962C9.49525 6.92962 9.40725 7.12962 9.40725 7.36962C9.40725 7.64162 9.51525 7.85762 9.73125 8.01762C9.94725 8.17762 10.2473 8.25762 10.6313 8.25762C10.9993 8.25762 11.3273 8.17362 11.6153 8.00562C11.9113 7.83762 12.1233 7.58962 12.2513 7.26162L12.5033 8.16162C12.3593 8.53762 12.0993 8.82962 11.7233 9.03762C11.3553 9.24562 10.8873 9.34963 10.3193 9.34963ZM18.628 9.34963C17.956 9.34963 17.356 9.20962 16.828 8.92962C16.308 8.64162 15.9 8.24962 15.604 7.75362C15.308 7.25762 15.16 6.69362 15.16 6.06162C15.16 5.42162 15.308 4.85762 15.604 4.36962C15.9 3.87362 16.308 3.48562 16.828 3.20563C17.356 2.92562 17.956 2.78562 18.628 2.78562C19.252 2.78562 19.8 2.91362 20.272 3.16962C20.752 3.41762 21.116 3.78562 21.364 4.27362L20.212 4.94562C20.02 4.64162 19.784 4.41762 19.504 4.27362C19.232 4.12962 18.936 4.05762 18.616 4.05762C18.248 4.05762 17.916 4.13762 17.62 4.29762C17.324 4.45762 17.092 4.68962 16.924 4.99362C16.756 5.28962 16.672 5.64562 16.672 6.06162C16.672 6.47762 16.756 6.83762 16.924 7.14162C17.092 7.43762 17.324 7.66562 17.62 7.82562C17.916 7.98562 18.248 8.06562 18.616 8.06562C18.936 8.06562 19.232 7.99362 19.504 7.84962C19.784 7.70562 20.02 7.48162 20.212 7.17762L21.364 7.84962C21.116 8.32962 20.752 8.70162 20.272 8.96562C19.8 9.22163 19.252 9.34963 18.628 9.34963ZM23.8261 7.83762L23.8621 5.95362L27.2101 2.85762H29.0101L26.1661 5.71362L25.3741 6.37362L23.8261 7.83762ZM22.6021 9.26562V0.361624H24.1021V9.26562H22.6021ZM27.4381 9.26562L25.0981 6.37362L26.0461 5.17362L29.2621 9.26562H27.4381ZM30.231 9.26562V2.85762H31.731V9.26562H30.231ZM30.987 1.80162C30.707 1.80162 30.475 1.71362 30.291 1.53762C30.115 1.36162 30.027 1.14962 30.027 0.901625C30.027 0.645625 30.115 0.433625 30.291 0.265624C30.475 0.0896246 30.707 0.00162482 30.987 0.00162482C31.267 0.00162482 31.495 0.0856247 31.671 0.253624C31.855 0.413625 31.947 0.617625 31.947 0.865624C31.947 1.12962 31.859 1.35362 31.683 1.53762C31.507 1.71362 31.275 1.80162 30.987 1.80162ZM37.3358 2.78562C37.8478 2.78562 38.3038 2.88562 38.7038 3.08562C39.1118 3.28562 39.4318 3.59362 39.6638 4.00962C39.8958 4.41762 40.0118 4.94562 40.0118 5.59362V9.26562H38.5118V5.78562C38.5118 5.21762 38.3758 4.79362 38.1038 4.51362C37.8398 4.23362 37.4678 4.09362 36.9878 4.09362C36.6358 4.09362 36.3238 4.16562 36.0518 4.30962C35.7798 4.45362 35.5678 4.66962 35.4158 4.95762C35.2718 5.23762 35.1998 5.59362 35.1998 6.02562V9.26562H33.6998V2.85762H35.1278V4.58562L34.8758 4.05762C35.0998 3.64962 35.4238 3.33762 35.8478 3.12162C36.2798 2.89762 36.7758 2.78562 37.3358 2.78562ZM44.8303 11.6776C44.2383 11.6776 43.6583 11.5976 43.0903 11.4376C42.5303 11.2856 42.0703 11.0616 41.7103 10.7656L42.3823 9.63763C42.6623 9.86963 43.0143 10.0536 43.4383 10.1896C43.8703 10.3336 44.3063 10.4056 44.7463 10.4056C45.4503 10.4056 45.9663 10.2416 46.2943 9.91363C46.6223 9.59363 46.7863 9.10962 46.7863 8.46162V7.32162L46.9063 5.86962L46.8583 4.41762V2.85762H48.2863V8.29362C48.2863 9.45363 47.9903 10.3056 47.3983 10.8496C46.8063 11.4016 45.9503 11.6776 44.8303 11.6776ZM44.6383 8.97762C44.0303 8.97762 43.4783 8.84962 42.9823 8.59362C42.4943 8.32962 42.1063 7.96562 41.8183 7.50163C41.5383 7.03762 41.3983 6.49362 41.3983 5.86962C41.3983 5.25362 41.5383 4.71362 41.8183 4.24962C42.1063 3.78562 42.4943 3.42562 42.9823 3.16962C43.4783 2.91362 44.0303 2.78562 44.6383 2.78562C45.1823 2.78562 45.6703 2.89362 46.1023 3.10962C46.5343 3.32562 46.8783 3.66162 47.1343 4.11762C47.3983 4.57362 47.5303 5.15762 47.5303 5.86962C47.5303 6.58162 47.3983 7.16962 47.1343 7.63362C46.8783 8.08962 46.5343 8.42962 46.1023 8.65362C45.6703 8.86962 45.1823 8.97762 44.6383 8.97762ZM44.8663 7.70562C45.2423 7.70562 45.5783 7.62962 45.8743 7.47762C46.1703 7.31762 46.3983 7.10162 46.5583 6.82962C46.7263 6.54962 46.8103 6.22962 46.8103 5.86962C46.8103 5.50962 46.7263 5.19362 46.5583 4.92162C46.3983 4.64162 46.1703 4.42962 45.8743 4.28562C45.5783 4.13362 45.2423 4.05762 44.8663 4.05762C44.4903 4.05762 44.1503 4.13362 43.8463 4.28562C43.5503 4.42962 43.3183 4.64162 43.1503 4.92162C42.9903 5.19362 42.9103 5.50962 42.9103 5.86962C42.9103 6.22962 42.9903 6.54962 43.1503 6.82962C43.3183 7.10162 43.5503 7.31762 43.8463 7.47762C44.1503 7.62962 44.4903 7.70562 44.8663 7.70562ZM55.9868 9.34963C55.2828 9.34963 54.7388 9.16962 54.3548 8.80962C53.9708 8.44162 53.7788 7.90162 53.7788 7.18962V1.44162H55.2788V7.15362C55.2788 7.45762 55.3548 7.69362 55.5068 7.86162C55.6668 8.02962 55.8868 8.11362 56.1668 8.11362C56.5028 8.11362 56.7828 8.02562 57.0068 7.84962L57.4268 8.91762C57.2508 9.06162 57.0348 9.16962 56.7788 9.24162C56.5228 9.31363 56.2588 9.34963 55.9868 9.34963ZM52.7228 4.10562V2.90562H56.9948V4.10562H52.7228ZM62.2967 2.78562C62.8087 2.78562 63.2647 2.88562 63.6647 3.08562C64.0727 3.28562 64.3927 3.59362 64.6247 4.00962C64.8567 4.41762 64.9727 4.94562 64.9727 5.59362V9.26562H63.4727V5.78562C63.4727 5.21762 63.3367 4.79362 63.0647 4.51362C62.8007 4.23362 62.4287 4.09362 61.9487 4.09362C61.5967 4.09362 61.2847 4.16562 61.0127 4.30962C60.7407 4.45362 60.5287 4.66962 60.3767 4.95762C60.2327 5.23762 60.1607 5.59362 60.1607 6.02562V9.26562H58.6607V0.361624H60.1607V4.58562L59.8367 4.05762C60.0607 3.64962 60.3847 3.33762 60.8087 3.12162C61.2407 2.89762 61.7367 2.78562 62.2967 2.78562ZM70.8235 9.26562V7.96962L70.7395 7.69362V5.42562C70.7395 4.98562 70.6075 4.64562 70.3435 4.40562C70.0795 4.15762 69.6795 4.03362 69.1435 4.03362C68.7835 4.03362 68.4275 4.08962 68.0755 4.20162C67.7315 4.31362 67.4395 4.46962 67.1995 4.66962L66.6115 3.57762C66.9555 3.31362 67.3635 3.11762 67.8355 2.98962C68.3155 2.85362 68.8115 2.78562 69.3235 2.78562C70.2515 2.78562 70.9675 3.00962 71.4715 3.45762C71.9835 3.89762 72.2395 4.58162 72.2395 5.50962V9.26562H70.8235ZM68.8075 9.34963C68.3275 9.34963 67.9075 9.26963 67.5475 9.10962C67.1875 8.94162 66.9075 8.71362 66.7075 8.42562C66.5155 8.12962 66.4195 7.79762 66.4195 7.42962C66.4195 7.06962 66.5035 6.74562 66.6715 6.45762C66.8475 6.16962 67.1315 5.94162 67.5235 5.77362C67.9155 5.60562 68.4355 5.52162 69.0835 5.52162H70.9435V6.51762H69.1915C68.6795 6.51762 68.3355 6.60162 68.1595 6.76962C67.9835 6.92962 67.8955 7.12962 67.8955 7.36962C67.8955 7.64162 68.0035 7.85762 68.2195 8.01762C68.4355 8.17762 68.7355 8.25762 69.1195 8.25762C69.4875 8.25762 69.8155 8.17362 70.1035 8.00562C70.3995 7.83762 70.6115 7.58962 70.7395 7.26162L70.9915 8.16162C70.8475 8.53762 70.5875 8.82962 70.2115 9.03762C69.8435 9.24562 69.3755 9.34963 68.8075 9.34963ZM76.5766 9.34963C75.8726 9.34963 75.3286 9.16962 74.9446 8.80962C74.5606 8.44162 74.3686 7.90162 74.3686 7.18962V1.44162H75.8686V7.15362C75.8686 7.45762 75.9446 7.69362 76.0966 7.86162C76.2566 8.02962 76.4766 8.11362 76.7566 8.11362C77.0926 8.11362 77.3726 8.02562 77.5966 7.84962L78.0166 8.91762C77.8406 9.06162 77.6246 9.16962 77.3686 9.24162C77.1126 9.31363 76.8486 9.34963 76.5766 9.34963ZM73.3126 4.10562V2.90562H77.5846V4.10562H73.3126ZM82.7109 9.26562V0.865624H86.1669C86.9109 0.865624 87.5469 0.985625 88.0749 1.22562C88.6109 1.46562 89.0229 1.80962 89.3109 2.25762C89.5989 2.70562 89.7429 3.23762 89.7429 3.85362C89.7429 4.46962 89.5989 5.00162 89.3109 5.44962C89.0229 5.89762 88.6109 6.24162 88.0749 6.48162C87.5469 6.72162 86.9109 6.84162 86.1669 6.84162H83.5749L84.2709 6.10962V9.26562H82.7109ZM84.2709 6.27762L83.5749 5.52162H86.0949C86.7829 5.52162 87.2989 5.37762 87.6429 5.08962C87.9949 4.79362 88.1709 4.38162 88.1709 3.85362C88.1709 3.31762 87.9949 2.90562 87.6429 2.61762C87.2989 2.32962 86.7829 2.18562 86.0949 2.18562H83.5749L84.2709 1.41762V6.27762ZM91.0982 9.26562V2.85762H92.5262V4.62162L92.3582 4.10562C92.5502 3.67362 92.8502 3.34562 93.2582 3.12162C93.6742 2.89762 94.1902 2.78562 94.8062 2.78562V4.21362C94.7422 4.19762 94.6822 4.18962 94.6262 4.18962C94.5702 4.18162 94.5142 4.17762 94.4582 4.17762C93.8902 4.17762 93.4382 4.34562 93.1022 4.68162C92.7662 5.00962 92.5982 5.50162 92.5982 6.15762V9.26562H91.0982ZM98.9001 9.34963C98.2441 9.34963 97.6601 9.20962 97.1481 8.92962C96.6361 8.64162 96.2321 8.24962 95.9361 7.75362C95.6401 7.25762 95.4921 6.69362 95.4921 6.06162C95.4921 5.42162 95.6401 4.85762 95.9361 4.36962C96.2321 3.87362 96.6361 3.48562 97.1481 3.20563C97.6601 2.92562 98.2441 2.78562 98.9001 2.78562C99.5641 2.78562 100.152 2.92562 100.664 3.20563C101.184 3.48562 101.588 3.86962 101.876 4.35762C102.172 4.84562 102.32 5.41362 102.32 6.06162C102.32 6.69362 102.172 7.25762 101.876 7.75362C101.588 8.24962 101.184 8.64162 100.664 8.92962C100.152 9.20962 99.5641 9.34963 98.9001 9.34963ZM98.9001 8.06562C99.2681 8.06562 99.5961 7.98562 99.8841 7.82562C100.172 7.66562 100.396 7.43362 100.556 7.12962C100.724 6.82562 100.808 6.46962 100.808 6.06162C100.808 5.64562 100.724 5.28962 100.556 4.99362C100.396 4.68962 100.172 4.45762 99.8841 4.29762C99.5961 4.13762 99.2721 4.05762 98.9121 4.05762C98.5441 4.05762 98.2161 4.13762 97.9281 4.29762C97.6481 4.45762 97.4241 4.68962 97.2561 4.99362C97.0881 5.28962 97.0041 5.64562 97.0041 6.06162C97.0041 6.46962 97.0881 6.82562 97.2561 7.12962C97.4241 7.43362 97.6481 7.66562 97.9281 7.82562C98.2161 7.98562 98.5401 8.06562 98.9001 8.06562ZM106.166 9.34963C105.462 9.34963 104.918 9.16962 104.534 8.80962C104.15 8.44162 103.958 7.90162 103.958 7.18962V1.44162H105.458V7.15362C105.458 7.45762 105.534 7.69362 105.686 7.86162C105.846 8.02962 106.066 8.11362 106.346 8.11362C106.682 8.11362 106.962 8.02562 107.186 7.84962L107.606 8.91762C107.43 9.06162 107.214 9.16962 106.958 9.24162C106.702 9.31363 106.438 9.34963 106.166 9.34963ZM102.902 4.10562V2.90562H107.174V4.10562H102.902ZM111.641 9.34963C110.929 9.34963 110.305 9.20962 109.769 8.92962C109.241 8.64162 108.829 8.24962 108.533 7.75362C108.245 7.25762 108.101 6.69362 108.101 6.06162C108.101 5.42162 108.241 4.85762 108.521 4.36962C108.809 3.87362 109.201 3.48562 109.697 3.20563C110.201 2.92562 110.773 2.78562 111.413 2.78562C112.037 2.78562 112.593 2.92162 113.081 3.19362C113.569 3.46562 113.953 3.84962 114.233 4.34562C114.513 4.84162 114.653 5.42562 114.653 6.09763C114.653 6.16162 114.649 6.23362 114.641 6.31362C114.641 6.39362 114.637 6.46962 114.629 6.54162H109.289V5.54562H113.837L113.249 5.85762C113.257 5.48962 113.181 5.16562 113.021 4.88562C112.861 4.60562 112.641 4.38562 112.361 4.22562C112.089 4.06562 111.773 3.98562 111.413 3.98562C111.045 3.98562 110.721 4.06562 110.441 4.22562C110.169 4.38562 109.953 4.60962 109.793 4.89762C109.641 5.17762 109.565 5.50962 109.565 5.89362V6.13362C109.565 6.51762 109.653 6.85762 109.829 7.15362C110.005 7.44962 110.253 7.67762 110.573 7.83762C110.893 7.99762 111.261 8.07762 111.677 8.07762C112.037 8.07762 112.361 8.02162 112.649 7.90962C112.937 7.79762 113.193 7.62162 113.417 7.38162L114.221 8.30562C113.933 8.64162 113.569 8.90162 113.129 9.08562C112.697 9.26162 112.201 9.34963 111.641 9.34963ZM119.034 9.34963C118.362 9.34963 117.762 9.20962 117.234 8.92962C116.714 8.64162 116.306 8.24962 116.01 7.75362C115.714 7.25762 115.566 6.69362 115.566 6.06162C115.566 5.42162 115.714 4.85762 116.01 4.36962C116.306 3.87362 116.714 3.48562 117.234 3.20563C117.762 2.92562 118.362 2.78562 119.034 2.78562C119.658 2.78562 120.206 2.91362 120.678 3.16962C121.158 3.41762 121.522 3.78562 121.77 4.27362L120.618 4.94562C120.426 4.64162 120.19 4.41762 119.91 4.27362C119.638 4.12962 119.342 4.05762 119.022 4.05762C118.654 4.05762 118.322 4.13762 118.026 4.29762C117.73 4.45762 117.498 4.68962 117.33 4.99362C117.162 5.28962 117.078 5.64562 117.078 6.06162C117.078 6.47762 117.162 6.83762 117.33 7.14162C117.498 7.43762 117.73 7.66562 118.026 7.82562C118.322 7.98562 118.654 8.06562 119.022 8.06562C119.342 8.06562 119.638 7.99362 119.91 7.84962C120.19 7.70562 120.426 7.48162 120.618 7.17762L121.77 7.84962C121.522 8.32962 121.158 8.70162 120.678 8.96562C120.206 9.22163 119.658 9.34963 119.034 9.34963ZM125.561 9.34963C124.857 9.34963 124.313 9.16962 123.929 8.80962C123.545 8.44162 123.353 7.90162 123.353 7.18962V1.44162H124.853V7.15362C124.853 7.45762 124.929 7.69362 125.081 7.86162C125.241 8.02962 125.461 8.11362 125.741 8.11362C126.077 8.11362 126.357 8.02562 126.581 7.84962L127.001 8.91762C126.825 9.06162 126.609 9.16962 126.353 9.24162C126.097 9.31363 125.833 9.34963 125.561 9.34963ZM122.297 4.10562V2.90562H126.569V4.10562H122.297ZM130.215 9.34963C129.679 9.34963 129.163 9.28162 128.667 9.14562C128.179 9.00162 127.791 8.82962 127.503 8.62962L128.079 7.48962C128.367 7.67362 128.711 7.82562 129.111 7.94562C129.511 8.06562 129.911 8.12562 130.311 8.12562C130.783 8.12562 131.123 8.06162 131.331 7.93362C131.547 7.80562 131.655 7.63362 131.655 7.41762C131.655 7.24162 131.583 7.10962 131.439 7.02162C131.295 6.92562 131.107 6.85362 130.875 6.80562C130.643 6.75762 130.383 6.71362 130.095 6.67362C129.815 6.63362 129.531 6.58162 129.243 6.51762C128.963 6.44562 128.707 6.34562 128.475 6.21762C128.243 6.08162 128.055 5.90162 127.911 5.67762C127.767 5.45362 127.695 5.15762 127.695 4.78962C127.695 4.38162 127.811 4.02962 128.043 3.73362C128.275 3.42962 128.599 3.19762 129.015 3.03762C129.439 2.86962 129.939 2.78562 130.515 2.78562C130.947 2.78562 131.383 2.83362 131.823 2.92963C132.263 3.02562 132.627 3.16162 132.915 3.33762L132.339 4.47762C132.035 4.29362 131.727 4.16962 131.415 4.10562C131.111 4.03362 130.807 3.99762 130.503 3.99762C130.047 3.99762 129.707 4.06562 129.483 4.20162C129.267 4.33762 129.159 4.50962 129.159 4.71762C129.159 4.90962 129.231 5.05362 129.375 5.14962C129.519 5.24562 129.707 5.32162 129.939 5.37762C130.171 5.43362 130.427 5.48162 130.707 5.52162C130.995 5.55362 131.279 5.60562 131.559 5.67762C131.839 5.74962 132.095 5.84962 132.327 5.97762C132.567 6.09762 132.759 6.26962 132.903 6.49362C133.047 6.71762 133.119 7.00962 133.119 7.36962C133.119 7.76962 132.999 8.11762 132.759 8.41362C132.527 8.70962 132.195 8.94162 131.763 9.10962C131.331 9.26963 130.815 9.34963 130.215 9.34963ZM139.299 4.72962H143.487V6.04962H139.299V4.72962ZM139.431 9.26562H137.871V0.865624H144.003V2.17362H139.431V9.26562ZM148.072 9.34963C147.416 9.34963 146.832 9.20962 146.32 8.92962C145.808 8.64162 145.404 8.24962 145.108 7.75362C144.812 7.25762 144.664 6.69362 144.664 6.06162C144.664 5.42162 144.812 4.85762 145.108 4.36962C145.404 3.87362 145.808 3.48562 146.32 3.20563C146.832 2.92562 147.416 2.78562 148.072 2.78562C148.736 2.78562 149.324 2.92562 149.836 3.20563C150.356 3.48562 150.76 3.86962 151.048 4.35762C151.344 4.84562 151.492 5.41362 151.492 6.06162C151.492 6.69362 151.344 7.25762 151.048 7.75362C150.76 8.24962 150.356 8.64162 149.836 8.92962C149.324 9.20962 148.736 9.34963 148.072 9.34963ZM148.072 8.06562C148.44 8.06562 148.768 7.98562 149.056 7.82562C149.344 7.66562 149.568 7.43362 149.728 7.12962C149.896 6.82562 149.98 6.46962 149.98 6.06162C149.98 5.64562 149.896 5.28962 149.728 4.99362C149.568 4.68962 149.344 4.45762 149.056 4.29762C148.768 4.13762 148.444 4.05762 148.084 4.05762C147.716 4.05762 147.388 4.13762 147.1 4.29762C146.82 4.45762 146.596 4.68962 146.428 4.99362C146.26 5.28962 146.176 5.64562 146.176 6.06162C146.176 6.46962 146.26 6.82562 146.428 7.12962C146.596 7.43362 146.82 7.66562 147.1 7.82562C147.388 7.98562 147.712 8.06562 148.072 8.06562ZM155.806 9.34963C155.15 9.34963 154.566 9.20962 154.054 8.92962C153.542 8.64162 153.138 8.24962 152.842 7.75362C152.546 7.25762 152.398 6.69362 152.398 6.06162C152.398 5.42162 152.546 4.85762 152.842 4.36962C153.138 3.87362 153.542 3.48562 154.054 3.20563C154.566 2.92562 155.15 2.78562 155.806 2.78562C156.47 2.78562 157.058 2.92562 157.57 3.20563C158.09 3.48562 158.494 3.86962 158.782 4.35762C159.078 4.84562 159.226 5.41362 159.226 6.06162C159.226 6.69362 159.078 7.25762 158.782 7.75362C158.494 8.24962 158.09 8.64162 157.57 8.92962C157.058 9.20962 156.47 9.34963 155.806 9.34963ZM155.806 8.06562C156.174 8.06562 156.502 7.98562 156.79 7.82562C157.078 7.66562 157.302 7.43362 157.462 7.12962C157.63 6.82562 157.714 6.46962 157.714 6.06162C157.714 5.64562 157.63 5.28962 157.462 4.99362C157.302 4.68962 157.078 4.45762 156.79 4.29762C156.502 4.13762 156.178 4.05762 155.818 4.05762C155.45 4.05762 155.122 4.13762 154.834 4.29762C154.554 4.45762 154.33 4.68962 154.162 4.99362C153.994 5.28962 153.91 5.64562 153.91 6.06162C153.91 6.46962 153.994 6.82562 154.162 7.12962C154.33 7.43362 154.554 7.66562 154.834 7.82562C155.122 7.98562 155.446 8.06562 155.806 8.06562ZM163.373 9.34963C162.757 9.34963 162.201 9.21362 161.705 8.94162C161.217 8.66162 160.833 8.27762 160.553 7.78962C160.273 7.30162 160.133 6.72562 160.133 6.06162C160.133 5.39762 160.273 4.82162 160.553 4.33362C160.833 3.84562 161.217 3.46562 161.705 3.19362C162.201 2.92162 162.757 2.78562 163.373 2.78562C163.909 2.78562 164.389 2.90562 164.813 3.14562C165.237 3.37762 165.573 3.73362 165.821 4.21362C166.069 4.69362 166.193 5.30962 166.193 6.06162C166.193 6.80562 166.073 7.42162 165.833 7.90962C165.593 8.38962 165.261 8.74962 164.837 8.98962C164.413 9.22962 163.925 9.34963 163.373 9.34963ZM163.553 8.06562C163.913 8.06562 164.233 7.98562 164.513 7.82562C164.801 7.66562 165.029 7.43362 165.197 7.12962C165.373 6.82562 165.461 6.46962 165.461 6.06162C165.461 5.64562 165.373 5.28962 165.197 4.99362C165.029 4.68962 164.801 4.45762 164.513 4.29762C164.233 4.13762 163.913 4.05762 163.553 4.05762C163.193 4.05762 162.869 4.13762 162.581 4.29762C162.301 4.45762 162.073 4.68962 161.897 4.99362C161.729 5.28962 161.645 5.64562 161.645 6.06162C161.645 6.46962 161.729 6.82562 161.897 7.12962C162.073 7.43362 162.301 7.66562 162.581 7.82562C162.869 7.98562 163.193 8.06562 163.553 8.06562ZM165.497 9.26562V7.75362L165.557 6.04962L165.437 4.34562V0.361624H166.925V9.26562H165.497ZM169.379 9.34963C169.107 9.34963 168.875 9.25762 168.683 9.07362C168.491 8.88162 168.395 8.64162 168.395 8.35362C168.395 8.04962 168.491 7.80962 168.683 7.63362C168.875 7.44962 169.107 7.35762 169.379 7.35762C169.651 7.35762 169.883 7.44962 170.075 7.63362C170.267 7.80962 170.363 8.04962 170.363 8.35362C170.363 8.64162 170.267 8.88162 170.075 9.07362C169.883 9.25762 169.651 9.34963 169.379 9.34963ZM175.289 9.26562V0.865624H178.745C179.489 0.865624 180.125 0.985625 180.653 1.22562C181.189 1.46562 181.601 1.80962 181.889 2.25762C182.177 2.70562 182.321 3.23762 182.321 3.85362C182.321 4.46962 182.177 5.00162 181.889 5.44962C181.601 5.89762 181.189 6.24162 180.653 6.48162C180.125 6.72162 179.489 6.84162 178.745 6.84162H176.153L176.849 6.10962V9.26562H175.289ZM176.849 6.27762L176.153 5.52162H178.673C179.361 5.52162 179.877 5.37762 180.221 5.08962C180.573 4.79362 180.749 4.38162 180.749 3.85362C180.749 3.31762 180.573 2.90562 180.221 2.61762C179.877 2.32962 179.361 2.18562 178.673 2.18562H176.153L176.849 1.41762V6.27762ZM187.624 9.26562V7.96962L187.54 7.69362V5.42562C187.54 4.98562 187.408 4.64562 187.144 4.40562C186.88 4.15762 186.48 4.03362 185.944 4.03362C185.584 4.03362 185.228 4.08962 184.876 4.20162C184.532 4.31362 184.24 4.46962 184 4.66962L183.412 3.57762C183.756 3.31362 184.164 3.11762 184.636 2.98962C185.116 2.85362 185.612 2.78562 186.124 2.78562C187.052 2.78562 187.768 3.00962 188.272 3.45762C188.784 3.89762 189.04 4.58162 189.04 5.50962V9.26562H187.624ZM185.608 9.34963C185.128 9.34963 184.708 9.26963 184.348 9.10962C183.988 8.94162 183.708 8.71362 183.508 8.42562C183.316 8.12962 183.22 7.79762 183.22 7.42962C183.22 7.06962 183.304 6.74562 183.472 6.45762C183.648 6.16962 183.932 5.94162 184.324 5.77362C184.716 5.60562 185.236 5.52162 185.884 5.52162H187.744V6.51762H185.992C185.48 6.51762 185.136 6.60162 184.96 6.76962C184.784 6.92962 184.696 7.12962 184.696 7.36962C184.696 7.64162 184.804 7.85762 185.02 8.01762C185.236 8.17762 185.536 8.25762 185.92 8.25762C186.288 8.25762 186.616 8.17362 186.904 8.00562C187.2 7.83762 187.412 7.58962 187.54 7.26162L187.792 8.16162C187.648 8.53762 187.388 8.82962 187.012 9.03762C186.644 9.24562 186.176 9.34963 185.608 9.34963ZM193.917 9.34963C193.245 9.34963 192.645 9.20962 192.117 8.92962C191.597 8.64162 191.189 8.24962 190.893 7.75362C190.597 7.25762 190.449 6.69362 190.449 6.06162C190.449 5.42162 190.597 4.85762 190.893 4.36962C191.189 3.87362 191.597 3.48562 192.117 3.20563C192.645 2.92562 193.245 2.78562 193.917 2.78562C194.541 2.78562 195.089 2.91362 195.561 3.16962C196.041 3.41762 196.405 3.78562 196.653 4.27362L195.501 4.94562C195.309 4.64162 195.073 4.41762 194.793 4.27362C194.521 4.12962 194.225 4.05762 193.905 4.05762C193.537 4.05762 193.205 4.13762 192.909 4.29762C192.613 4.45762 192.381 4.68962 192.213 4.99362C192.045 5.28962 191.961 5.64562 191.961 6.06162C191.961 6.47762 192.045 6.83762 192.213 7.14162C192.381 7.43762 192.613 7.66562 192.909 7.82562C193.205 7.98562 193.537 8.06562 193.905 8.06562C194.225 8.06562 194.521 7.99362 194.793 7.84962C195.073 7.70562 195.309 7.48162 195.501 7.17762L196.653 7.84962C196.405 8.32962 196.041 8.70162 195.561 8.96562C195.089 9.22163 194.541 9.34963 193.917 9.34963ZM199.115 7.83762L199.151 5.95362L202.499 2.85762H204.299L201.455 5.71362L200.663 6.37362L199.115 7.83762ZM197.891 9.26562V0.361624H199.391V9.26562H197.891ZM202.727 9.26562L200.387 6.37362L201.335 5.17362L204.551 9.26562H202.727ZM209.351 9.26562V7.96962L209.267 7.69362V5.42562C209.267 4.98562 209.135 4.64562 208.871 4.40562C208.607 4.15762 208.207 4.03362 207.671 4.03362C207.311 4.03362 206.955 4.08962 206.603 4.20162C206.259 4.31362 205.967 4.46962 205.727 4.66962L205.139 3.57762C205.483 3.31362 205.891 3.11762 206.363 2.98962C206.843 2.85362 207.339 2.78562 207.851 2.78562C208.779 2.78562 209.495 3.00962 209.999 3.45762C210.511 3.89762 210.767 4.58162 210.767 5.50962V9.26562H209.351ZM207.335 9.34963C206.855 9.34963 206.435 9.26963 206.075 9.10962C205.715 8.94162 205.435 8.71362 205.235 8.42562C205.043 8.12962 204.947 7.79762 204.947 7.42962C204.947 7.06962 205.031 6.74562 205.199 6.45762C205.375 6.16962 205.659 5.94162 206.051 5.77362C206.443 5.60562 206.963 5.52162 207.611 5.52162H209.471V6.51762H207.719C207.207 6.51762 206.863 6.60162 206.687 6.76962C206.511 6.92962 206.423 7.12962 206.423 7.36962C206.423 7.64162 206.531 7.85762 206.747 8.01762C206.963 8.17762 207.263 8.25762 207.647 8.25762C208.015 8.25762 208.343 8.17362 208.631 8.00562C208.927 7.83762 209.139 7.58962 209.267 7.26162L209.519 8.16162C209.375 8.53762 209.115 8.82962 208.739 9.03762C208.371 9.24562 207.903 9.34963 207.335 9.34963ZM215.608 11.6776C215.016 11.6776 214.436 11.5976 213.868 11.4376C213.308 11.2856 212.848 11.0616 212.488 10.7656L213.16 9.63763C213.44 9.86963 213.792 10.0536 214.216 10.1896C214.648 10.3336 215.084 10.4056 215.524 10.4056C216.228 10.4056 216.744 10.2416 217.072 9.91363C217.4 9.59363 217.564 9.10962 217.564 8.46162V7.32162L217.684 5.86962L217.636 4.41762V2.85762H219.064V8.29362C219.064 9.45363 218.768 10.3056 218.176 10.8496C217.584 11.4016 216.728 11.6776 215.608 11.6776ZM215.416 8.97762C214.808 8.97762 214.256 8.84962 213.76 8.59362C213.272 8.32962 212.884 7.96562 212.596 7.50163C212.316 7.03762 212.176 6.49362 212.176 5.86962C212.176 5.25362 212.316 4.71362 212.596 4.24962C212.884 3.78562 213.272 3.42562 213.76 3.16962C214.256 2.91362 214.808 2.78562 215.416 2.78562C215.96 2.78562 216.448 2.89362 216.88 3.10962C217.312 3.32562 217.656 3.66162 217.912 4.11762C218.176 4.57362 218.308 5.15762 218.308 5.86962C218.308 6.58162 218.176 7.16962 217.912 7.63362C217.656 8.08962 217.312 8.42962 216.88 8.65362C216.448 8.86962 215.96 8.97762 215.416 8.97762ZM215.644 7.70562C216.02 7.70562 216.356 7.62962 216.652 7.47762C216.948 7.31762 217.176 7.10162 217.336 6.82962C217.504 6.54962 217.588 6.22962 217.588 5.86962C217.588 5.50962 217.504 5.19362 217.336 4.92162C217.176 4.64162 216.948 4.42962 216.652 4.28562C216.356 4.13362 216.02 4.05762 215.644 4.05762C215.268 4.05762 214.928 4.13362 214.624 4.28562C214.328 4.42962 214.096 4.64162 213.928 4.92162C213.768 5.19362 213.688 5.50962 213.688 5.86962C213.688 6.22962 213.768 6.54962 213.928 6.82962C214.096 7.10162 214.328 7.31762 214.624 7.47762C214.928 7.62962 215.268 7.70562 215.644 7.70562ZM221.036 9.26562V2.85762H222.536V9.26562H221.036ZM221.792 1.80162C221.512 1.80162 221.28 1.71362 221.096 1.53762C220.92 1.36162 220.832 1.14962 220.832 0.901625C220.832 0.645625 220.92 0.433625 221.096 0.265624C221.28 0.0896246 221.512 0.00162482 221.792 0.00162482C222.072 0.00162482 222.3 0.0856247 222.476 0.253624C222.66 0.413625 222.752 0.617625 222.752 0.865624C222.752 1.12962 222.664 1.35362 222.488 1.53762C222.312 1.71362 222.08 1.80162 221.792 1.80162ZM228.14 2.78562C228.652 2.78562 229.108 2.88562 229.508 3.08562C229.916 3.28562 230.236 3.59362 230.468 4.00962C230.7 4.41762 230.816 4.94562 230.816 5.59362V9.26562H229.316V5.78562C229.316 5.21762 229.18 4.79362 228.908 4.51362C228.644 4.23362 228.272 4.09362 227.792 4.09362C227.44 4.09362 227.128 4.16562 226.856 4.30962C226.584 4.45362 226.372 4.66962 226.22 4.95762C226.076 5.23762 226.004 5.59362 226.004 6.02562V9.26562H224.504V2.85762H225.932V4.58562L225.68 4.05762C225.904 3.64962 226.228 3.33762 226.652 3.12162C227.084 2.89762 227.58 2.78562 228.14 2.78562ZM235.635 11.6776C235.043 11.6776 234.463 11.5976 233.895 11.4376C233.335 11.2856 232.875 11.0616 232.515 10.7656L233.187 9.63763C233.467 9.86963 233.819 10.0536 234.243 10.1896C234.675 10.3336 235.111 10.4056 235.551 10.4056C236.255 10.4056 236.771 10.2416 237.099 9.91363C237.427 9.59363 237.591 9.10962 237.591 8.46162V7.32162L237.711 5.86962L237.663 4.41762V2.85762H239.091V8.29362C239.091 9.45363 238.795 10.3056 238.203 10.8496C237.611 11.4016 236.755 11.6776 235.635 11.6776ZM235.443 8.97762C234.835 8.97762 234.283 8.84962 233.787 8.59362C233.299 8.32962 232.911 7.96562 232.623 7.50163C232.343 7.03762 232.203 6.49362 232.203 5.86962C232.203 5.25362 232.343 4.71362 232.623 4.24962C232.911 3.78562 233.299 3.42562 233.787 3.16962C234.283 2.91362 234.835 2.78562 235.443 2.78562C235.987 2.78562 236.475 2.89362 236.907 3.10962C237.339 3.32562 237.683 3.66162 237.939 4.11762C238.203 4.57362 238.335 5.15762 238.335 5.86962C238.335 6.58162 238.203 7.16962 237.939 7.63362C237.683 8.08962 237.339 8.42962 236.907 8.65362C236.475 8.86962 235.987 8.97762 235.443 8.97762ZM235.671 7.70562C236.047 7.70562 236.383 7.62962 236.679 7.47762C236.975 7.31762 237.203 7.10162 237.363 6.82962C237.531 6.54962 237.615 6.22962 237.615 5.86962C237.615 5.50962 237.531 5.19362 237.363 4.92162C237.203 4.64162 236.975 4.42962 236.679 4.28562C236.383 4.13362 236.047 4.05762 235.671 4.05762C235.295 4.05762 234.955 4.13362 234.651 4.28562C234.355 4.42962 234.123 4.64162 233.955 4.92162C233.795 5.19362 233.715 5.50962 233.715 5.86962C233.715 6.22962 233.795 6.54962 233.955 6.82962C234.123 7.10162 234.355 7.31762 234.651 7.47762C234.955 7.62962 235.295 7.70562 235.671 7.70562ZM246.791 9.34963C246.087 9.34963 245.543 9.16962 245.159 8.80962C244.775 8.44162 244.583 7.90162 244.583 7.18962V1.44162H246.083V7.15362C246.083 7.45762 246.159 7.69362 246.311 7.86162C246.471 8.02962 246.691 8.11362 246.971 8.11362C247.307 8.11362 247.587 8.02562 247.811 7.84962L248.231 8.91762C248.055 9.06162 247.839 9.16962 247.583 9.24162C247.327 9.31363 247.063 9.34963 246.791 9.34963ZM243.527 4.10562V2.90562H247.799V4.10562H243.527ZM253.101 2.78562C253.613 2.78562 254.069 2.88562 254.469 3.08562C254.877 3.28562 255.197 3.59362 255.429 4.00962C255.661 4.41762 255.777 4.94562 255.777 5.59362V9.26562H254.277V5.78562C254.277 5.21762 254.141 4.79362 253.869 4.51362C253.605 4.23362 253.233 4.09362 252.753 4.09362C252.401 4.09362 252.089 4.16562 251.817 4.30962C251.545 4.45362 251.333 4.66962 251.181 4.95762C251.037 5.23762 250.965 5.59362 250.965 6.02562V9.26562H249.465V0.361624H250.965V4.58562L250.641 4.05762C250.865 3.64962 251.189 3.33762 251.613 3.12162C252.045 2.89762 252.541 2.78562 253.101 2.78562ZM261.628 9.26562V7.96962L261.544 7.69362V5.42562C261.544 4.98562 261.412 4.64562 261.148 4.40562C260.884 4.15762 260.484 4.03362 259.948 4.03362C259.588 4.03362 259.232 4.08962 258.88 4.20162C258.536 4.31362 258.244 4.46962 258.004 4.66962L257.416 3.57762C257.76 3.31362 258.168 3.11762 258.64 2.98962C259.12 2.85362 259.616 2.78562 260.128 2.78562C261.056 2.78562 261.772 3.00962 262.276 3.45762C262.788 3.89762 263.044 4.58162 263.044 5.50962V9.26562H261.628ZM259.612 9.34963C259.132 9.34963 258.712 9.26963 258.352 9.10962C257.992 8.94162 257.712 8.71362 257.512 8.42562C257.32 8.12962 257.224 7.79762 257.224 7.42962C257.224 7.06962 257.308 6.74562 257.476 6.45762C257.652 6.16962 257.936 5.94162 258.328 5.77362C258.72 5.60562 259.24 5.52162 259.888 5.52162H261.748V6.51762H259.996C259.484 6.51762 259.14 6.60162 258.964 6.76962C258.788 6.92962 258.7 7.12962 258.7 7.36962C258.7 7.64162 258.808 7.85762 259.024 8.01762C259.24 8.17762 259.54 8.25762 259.924 8.25762C260.292 8.25762 260.62 8.17362 260.908 8.00562C261.204 7.83762 261.416 7.58962 261.544 7.26162L261.796 8.16162C261.652 8.53762 261.392 8.82962 261.016 9.03762C260.648 9.24562 260.18 9.34963 259.612 9.34963ZM267.381 9.34963C266.677 9.34963 266.133 9.16962 265.749 8.80962C265.365 8.44162 265.173 7.90162 265.173 7.18962V1.44162H266.673V7.15362C266.673 7.45762 266.749 7.69362 266.901 7.86162C267.061 8.02962 267.281 8.11362 267.561 8.11362C267.897 8.11362 268.177 8.02562 268.401 7.84962L268.821 8.91762C268.645 9.06162 268.429 9.16962 268.173 9.24162C267.917 9.31363 267.653 9.34963 267.381 9.34963ZM264.117 4.10562V2.90562H268.389V4.10562H264.117ZM273.516 9.26562V0.865624H276.972C277.716 0.865624 278.352 0.985625 278.88 1.22562C279.416 1.46562 279.828 1.80962 280.116 2.25762C280.404 2.70562 280.548 3.23762 280.548 3.85362C280.548 4.46962 280.404 5.00162 280.116 5.44962C279.828 5.89762 279.416 6.24162 278.88 6.48162C278.352 6.72162 277.716 6.84162 276.972 6.84162H274.38L275.076 6.10962V9.26562H273.516ZM275.076 6.27762L274.38 5.52162H276.9C277.588 5.52162 278.104 5.37762 278.448 5.08962C278.8 4.79362 278.976 4.38162 278.976 3.85362C278.976 3.31762 278.8 2.90562 278.448 2.61762C278.104 2.32962 277.588 2.18562 276.9 2.18562H274.38L275.076 1.41762V6.27762ZM281.903 9.26562V2.85762H283.331V4.62162L283.163 4.10562C283.355 3.67362 283.655 3.34562 284.063 3.12162C284.479 2.89762 284.995 2.78562 285.611 2.78562V4.21362C285.547 4.19762 285.487 4.18962 285.431 4.18962C285.375 4.18162 285.319 4.17762 285.263 4.17762C284.695 4.17762 284.243 4.34562 283.907 4.68162C283.571 5.00962 283.403 5.50162 283.403 6.15762V9.26562H281.903ZM289.705 9.34963C289.049 9.34963 288.465 9.20962 287.953 8.92962C287.441 8.64162 287.037 8.24962 286.741 7.75362C286.445 7.25762 286.297 6.69362 286.297 6.06162C286.297 5.42162 286.445 4.85762 286.741 4.36962C287.037 3.87362 287.441 3.48562 287.953 3.20563C288.465 2.92562 289.049 2.78562 289.705 2.78562C290.369 2.78562 290.957 2.92562 291.469 3.20563C291.989 3.48562 292.393 3.86962 292.681 4.35762C292.977 4.84562 293.125 5.41362 293.125 6.06162C293.125 6.69362 292.977 7.25762 292.681 7.75362C292.393 8.24962 291.989 8.64162 291.469 8.92962C290.957 9.20962 290.369 9.34963 289.705 9.34963ZM289.705 8.06562C290.073 8.06562 290.401 7.98562 290.689 7.82562C290.977 7.66562 291.201 7.43362 291.361 7.12962C291.529 6.82562 291.613 6.46962 291.613 6.06162C291.613 5.64562 291.529 5.28962 291.361 4.99362C291.201 4.68962 290.977 4.45762 290.689 4.29762C290.401 4.13762 290.077 4.05762 289.717 4.05762C289.349 4.05762 289.021 4.13762 288.733 4.29762C288.453 4.45762 288.229 4.68962 288.061 4.99362C287.893 5.28962 287.809 5.64562 287.809 6.06162C287.809 6.46962 287.893 6.82562 288.061 7.12962C288.229 7.43362 288.453 7.66562 288.733 7.82562C289.021 7.98562 289.345 8.06562 289.705 8.06562ZM296.971 9.34963C296.267 9.34963 295.723 9.16962 295.339 8.80962C294.955 8.44162 294.763 7.90162 294.763 7.18962V1.44162H296.263V7.15362C296.263 7.45762 296.339 7.69362 296.491 7.86162C296.651 8.02962 296.871 8.11362 297.151 8.11362C297.487 8.11362 297.767 8.02562 297.991 7.84962L298.411 8.91762C298.235 9.06162 298.019 9.16962 297.763 9.24162C297.507 9.31363 297.243 9.34963 296.971 9.34963ZM293.707 4.10562V2.90562H297.979V4.10562H293.707ZM302.446 9.34963C301.734 9.34963 301.11 9.20962 300.574 8.92962C300.046 8.64162 299.634 8.24962 299.338 7.75362C299.05 7.25762 298.906 6.69362 298.906 6.06162C298.906 5.42162 299.046 4.85762 299.326 4.36962C299.614 3.87362 300.006 3.48562 300.502 3.20563C301.006 2.92562 301.578 2.78562 302.218 2.78562C302.842 2.78562 303.398 2.92162 303.886 3.19362C304.374 3.46562 304.758 3.84962 305.038 4.34562C305.318 4.84162 305.458 5.42562 305.458 6.09763C305.458 6.16162 305.454 6.23362 305.446 6.31362C305.446 6.39362 305.442 6.46962 305.434 6.54162H300.094V5.54562H304.642L304.054 5.85762C304.062 5.48962 303.986 5.16562 303.826 4.88562C303.666 4.60562 303.446 4.38562 303.166 4.22562C302.894 4.06562 302.578 3.98562 302.218 3.98562C301.85 3.98562 301.526 4.06562 301.246 4.22562C300.974 4.38562 300.758 4.60962 300.598 4.89762C300.446 5.17762 300.37 5.50962 300.37 5.89362V6.13362C300.37 6.51762 300.458 6.85762 300.634 7.15362C300.81 7.44962 301.058 7.67762 301.378 7.83762C301.698 7.99762 302.066 8.07762 302.482 8.07762C302.842 8.07762 303.166 8.02162 303.454 7.90962C303.742 7.79762 303.998 7.62162 304.222 7.38162L305.026 8.30562C304.738 8.64162 304.374 8.90162 303.934 9.08562C303.502 9.26162 303.006 9.34963 302.446 9.34963ZM309.839 9.34963C309.167 9.34963 308.567 9.20962 308.039 8.92962C307.519 8.64162 307.111 8.24962 306.815 7.75362C306.519 7.25762 306.371 6.69362 306.371 6.06162C306.371 5.42162 306.519 4.85762 306.815 4.36962C307.111 3.87362 307.519 3.48562 308.039 3.20563C308.567 2.92562 309.167 2.78562 309.839 2.78562C310.463 2.78562 311.011 2.91362 311.483 3.16962C311.963 3.41762 312.327 3.78562 312.575 4.27362L311.423 4.94562C311.231 4.64162 310.995 4.41762 310.715 4.27362C310.443 4.12962 310.147 4.05762 309.827 4.05762C309.459 4.05762 309.127 4.13762 308.831 4.29762C308.535 4.45762 308.303 4.68962 308.135 4.99362C307.967 5.28962 307.883 5.64562 307.883 6.06162C307.883 6.47762 307.967 6.83762 308.135 7.14162C308.303 7.43762 308.535 7.66562 308.831 7.82562C309.127 7.98562 309.459 8.06562 309.827 8.06562C310.147 8.06562 310.443 7.99362 310.715 7.84962C310.995 7.70562 311.231 7.48162 311.423 7.17762L312.575 7.84962C312.327 8.32962 311.963 8.70162 311.483 8.96562C311.011 9.22163 310.463 9.34963 309.839 9.34963ZM316.366 9.34963C315.662 9.34963 315.118 9.16962 314.734 8.80962C314.35 8.44162 314.158 7.90162 314.158 7.18962V1.44162H315.658V7.15362C315.658 7.45762 315.734 7.69362 315.886 7.86162C316.046 8.02962 316.266 8.11362 316.546 8.11362C316.882 8.11362 317.162 8.02562 317.386 7.84962L317.806 8.91762C317.63 9.06162 317.414 9.16962 317.158 9.24162C316.902 9.31363 316.638 9.34963 316.366 9.34963ZM313.102 4.10562V2.90562H317.374V4.10562H313.102ZM321.02 9.34963C320.484 9.34963 319.968 9.28162 319.472 9.14562C318.984 9.00162 318.596 8.82962 318.308 8.62962L318.884 7.48962C319.172 7.67362 319.516 7.82562 319.916 7.94562C320.316 8.06562 320.716 8.12562 321.116 8.12562C321.588 8.12562 321.928 8.06162 322.136 7.93362C322.352 7.80562 322.46 7.63362 322.46 7.41762C322.46 7.24162 322.388 7.10962 322.244 7.02162C322.1 6.92562 321.912 6.85362 321.68 6.80562C321.448 6.75762 321.188 6.71362 320.9 6.67362C320.62 6.63362 320.336 6.58162 320.048 6.51762C319.768 6.44562 319.512 6.34562 319.28 6.21762C319.048 6.08162 318.86 5.90162 318.716 5.67762C318.572 5.45362 318.5 5.15762 318.5 4.78962C318.5 4.38162 318.616 4.02962 318.848 3.73362C319.08 3.42962 319.404 3.19762 319.82 3.03762C320.244 2.86962 320.744 2.78562 321.32 2.78562C321.752 2.78562 322.188 2.83362 322.628 2.92963C323.068 3.02562 323.432 3.16162 323.72 3.33762L323.144 4.47762C322.84 4.29362 322.532 4.16962 322.22 4.10562C321.916 4.03362 321.612 3.99762 321.308 3.99762C320.852 3.99762 320.512 4.06562 320.288 4.20162C320.072 4.33762 319.964 4.50962 319.964 4.71762C319.964 4.90962 320.036 5.05362 320.18 5.14962C320.324 5.24562 320.512 5.32162 320.744 5.37762C320.976 5.43362 321.232 5.48162 321.512 5.52162C321.8 5.55362 322.084 5.60562 322.364 5.67762C322.644 5.74962 322.9 5.84962 323.132 5.97762C323.372 6.09762 323.564 6.26962 323.708 6.49362C323.852 6.71762 323.924 7.00962 323.924 7.36962C323.924 7.76962 323.804 8.11762 323.564 8.41362C323.332 8.70962 323 8.94162 322.568 9.10962C322.136 9.26963 321.62 9.34963 321.02 9.34963ZM328.676 9.26562V0.865624H329.96L335.228 7.33362H334.592V0.865624H336.14V9.26562H334.856L329.588 2.79762H330.224V9.26562H328.676ZM342.195 9.26562V7.96962L342.111 7.69362V5.42562C342.111 4.98562 341.979 4.64562 341.715 4.40562C341.451 4.15762 341.051 4.03362 340.515 4.03362C340.155 4.03362 339.799 4.08962 339.447 4.20162C339.103 4.31362 338.811 4.46962 338.571 4.66962L337.983 3.57762C338.327 3.31362 338.735 3.11762 339.207 2.98962C339.687 2.85362 340.183 2.78562 340.695 2.78562C341.623 2.78562 342.339 3.00962 342.843 3.45762C343.355 3.89762 343.611 4.58162 343.611 5.50962V9.26562H342.195ZM340.179 9.34963C339.699 9.34963 339.279 9.26963 338.919 9.10962C338.559 8.94162 338.279 8.71362 338.079 8.42562C337.887 8.12962 337.791 7.79762 337.791 7.42962C337.791 7.06962 337.875 6.74562 338.043 6.45762C338.219 6.16962 338.503 5.94162 338.895 5.77362C339.287 5.60562 339.807 5.52162 340.455 5.52162H342.315V6.51762H340.563C340.051 6.51762 339.707 6.60162 339.531 6.76962C339.355 6.92962 339.267 7.12962 339.267 7.36962C339.267 7.64162 339.375 7.85762 339.591 8.01762C339.807 8.17762 340.107 8.25762 340.491 8.25762C340.859 8.25762 341.187 8.17362 341.475 8.00562C341.771 7.83762 341.983 7.58962 342.111 7.26162L342.363 8.16162C342.219 8.53762 341.959 8.82962 341.583 9.03762C341.215 9.24562 340.747 9.34963 340.179 9.34963ZM347.948 9.34963C347.244 9.34963 346.7 9.16962 346.316 8.80962C345.932 8.44162 345.74 7.90162 345.74 7.18962V1.44162H347.24V7.15362C347.24 7.45762 347.316 7.69362 347.468 7.86162C347.628 8.02962 347.848 8.11362 348.128 8.11362C348.464 8.11362 348.744 8.02562 348.968 7.84962L349.388 8.91762C349.212 9.06162 348.996 9.16962 348.74 9.24162C348.484 9.31363 348.22 9.34963 347.948 9.34963ZM344.684 4.10562V2.90562H348.956V4.10562H344.684ZM353.334 9.34963C352.79 9.34963 352.31 9.24962 351.894 9.04962C351.478 8.84162 351.154 8.52962 350.922 8.11362C350.69 7.68962 350.574 7.15762 350.574 6.51762V2.85762H352.074V6.31362C352.074 6.88962 352.202 7.32162 352.458 7.60962C352.722 7.88962 353.094 8.02962 353.574 8.02962C353.926 8.02962 354.23 7.95762 354.486 7.81362C354.75 7.66962 354.954 7.45362 355.098 7.16562C355.25 6.87762 355.326 6.52162 355.326 6.09763V2.85762H356.826V9.26562H355.398V7.53762L355.65 8.06562C355.434 8.48162 355.118 8.80162 354.702 9.02562C354.286 9.24162 353.83 9.34963 353.334 9.34963ZM358.79 9.26562V2.85762H360.218V4.62162L360.05 4.10562C360.242 3.67362 360.542 3.34562 360.95 3.12162C361.366 2.89762 361.882 2.78562 362.498 2.78562V4.21362C362.434 4.19762 362.374 4.18962 362.318 4.18962C362.262 4.18162 362.206 4.17762 362.15 4.17762C361.582 4.17762 361.13 4.34562 360.794 4.68162C360.458 5.00962 360.29 5.50162 360.29 6.15762V9.26562H358.79ZM366.723 9.34963C366.011 9.34963 365.387 9.20962 364.851 8.92962C364.323 8.64162 363.911 8.24962 363.615 7.75362C363.327 7.25762 363.183 6.69362 363.183 6.06162C363.183 5.42162 363.323 4.85762 363.603 4.36962C363.891 3.87362 364.283 3.48562 364.779 3.20563C365.283 2.92562 365.855 2.78562 366.495 2.78562C367.119 2.78562 367.675 2.92162 368.163 3.19362C368.651 3.46562 369.035 3.84962 369.315 4.34562C369.595 4.84162 369.735 5.42562 369.735 6.09763C369.735 6.16162 369.731 6.23362 369.723 6.31362C369.723 6.39362 369.719 6.46962 369.711 6.54162H364.371V5.54562H368.919L368.331 5.85762C368.339 5.48962 368.263 5.16562 368.103 4.88562C367.943 4.60562 367.723 4.38562 367.443 4.22562C367.171 4.06562 366.855 3.98562 366.495 3.98562C366.127 3.98562 365.803 4.06562 365.523 4.22562C365.251 4.38562 365.035 4.60962 364.875 4.89762C364.723 5.17762 364.647 5.50962 364.647 5.89362V6.13362C364.647 6.51762 364.735 6.85762 364.911 7.15362C365.087 7.44962 365.335 7.67762 365.655 7.83762C365.975 7.99762 366.343 8.07762 366.759 8.07762C367.119 8.07762 367.443 8.02162 367.731 7.90962C368.019 7.79762 368.275 7.62162 368.499 7.38162L369.303 8.30562C369.015 8.64162 368.651 8.90162 368.211 9.08562C367.779 9.26162 367.283 9.34963 366.723 9.34963ZM371.656 9.34963C371.384 9.34963 371.152 9.25762 370.96 9.07362C370.768 8.88162 370.672 8.64162 370.672 8.35362C370.672 8.04962 370.768 7.80962 370.96 7.63362C371.152 7.44962 371.384 7.35762 371.656 7.35762C371.928 7.35762 372.16 7.44962 372.352 7.63362C372.544 7.80962 372.64 8.04962 372.64 8.35362C372.64 8.64162 372.544 8.88162 372.352 9.07362C372.16 9.25762 371.928 9.34963 371.656 9.34963Z" fill="#284B21"/>
</svg>
