<svg width="137" height="39" viewBox="0 0 137 39" fill="none" xmlns="http://www.w3.org/2000/svg">
<circle cx="19.1824" cy="19.1824" r="19.1824" fill="#024731"/>
<path d="M24.6654 8.66087C24.6859 8.63318 24.7312 8.5911 24.7662 8.56755C24.8144 8.535 24.8554 8.52421 24.9335 8.5235C25.0147 8.5226 25.0512 8.53195 25.1043 8.56719C25.1413 8.59164 25.19 8.63821 25.2125 8.67058C25.235 8.70277 25.2578 8.76156 25.2636 8.80112C25.2701 8.84715 25.2312 9.1478 25.1552 9.63724C25.0901 10.0576 25.0368 10.4196 25.0368 10.4419C25.0368 10.4642 25.043 10.4823 25.0503 10.4825C25.0577 10.4825 25.2458 10.503 25.4684 10.5278C25.6908 10.5528 25.9215 10.582 25.9808 10.5926C26.0402 10.603 26.1373 10.6294 26.1966 10.651C26.256 10.6726 26.357 10.7193 26.4214 10.7549C26.4856 10.7905 26.5859 10.8632 26.6442 10.9162C26.7024 10.9693 26.785 11.0613 26.8272 11.1207C26.8696 11.18 26.9284 11.2812 26.9578 11.3454C26.9872 11.4098 27.0239 11.5109 27.0392 11.5702C27.0547 11.6295 27.0928 11.9046 27.1241 12.1816C27.1552 12.4585 27.182 12.6872 27.1832 12.6897C27.1845 12.6924 27.6022 12.6647 29.0376 12.5622L29.1264 12.6057C29.1784 12.6311 29.2325 12.6751 29.2568 12.712C29.2796 12.7467 29.3034 12.8154 29.3097 12.8648C29.3183 12.933 29.3127 12.9742 29.2863 13.0356C29.2671 13.0802 29.2235 13.1387 29.1896 13.1657C29.1491 13.1975 29.0899 13.2209 29.0196 13.2327C28.9603 13.2426 28.673 13.2672 28.3813 13.2872C28.0897 13.3072 27.7194 13.3336 27.2663 13.3683L27.2665 13.4222C27.2667 13.4519 27.3839 14.5401 27.527 15.8407L27.7973 18.2951C27.8029 18.3445 27.7991 18.4458 27.7888 18.5199C27.7786 18.5941 27.7496 18.7155 27.7246 18.7896C27.6995 18.8638 27.6459 18.9811 27.6054 19.0503C27.5418 19.1593 26.8824 19.8256 22.6837 24.0244C18.4389 28.2693 17.8198 28.8818 17.7096 28.9452C17.6404 28.985 17.519 29.0398 17.4399 29.0672C17.3216 29.1078 17.2559 29.118 17.0713 29.1245C16.8988 29.1304 16.8172 29.1252 16.7206 29.1017C16.6514 29.0846 16.5381 29.045 16.4689 29.0134C16.3997 28.9817 16.3026 28.9291 16.2531 28.8962C16.2037 28.8632 14.526 27.2007 12.5251 25.202C10.5242 23.203 8.85214 21.523 8.80953 21.4687C8.76691 21.4144 8.7029 21.3132 8.66748 21.244C8.63206 21.1747 8.58585 21.0534 8.56481 20.9743C8.53694 20.8705 8.52597 20.7754 8.52543 20.6326C8.52471 20.4807 8.5337 20.4016 8.56463 20.291C8.58675 20.2119 8.63619 20.0865 8.67467 20.0123C8.71315 19.9382 8.7973 19.8168 8.86167 19.7426C8.92605 19.6683 11.105 17.4825 13.7038 14.8852C17.0745 11.5164 18.4623 10.1407 18.5457 10.0855C18.6099 10.0429 18.7111 9.98823 18.7705 9.96413C18.8298 9.93986 18.9188 9.90911 18.9683 9.89581C19.0177 9.8825 19.1188 9.86632 19.193 9.8602C19.2978 9.85139 19.5864 9.87764 20.4876 9.97762L22.996 10.2558C23.7377 10.3381 24.3466 10.4045 24.3491 10.4034C24.3514 10.4023 24.4089 10.0415 24.4771 9.60128C24.5451 9.1611 24.6067 8.7808 24.6143 8.75617C24.6218 8.73136 24.6449 8.68856 24.6654 8.66087Z" fill="white"/>
<path fill-rule="evenodd" clip-rule="evenodd" d="M19.2739 10.5345C19.3432 10.5341 19.9824 10.5981 20.6944 10.6769C21.4065 10.7557 22.871 10.9177 23.949 11.0371C25.8278 11.2449 25.9134 11.2561 26.0168 11.3039C26.0761 11.3316 26.1571 11.3828 26.1966 11.4181C26.2362 11.4533 26.2899 11.5217 26.3162 11.5698C26.3424 11.6182 26.373 11.69 26.3842 11.7295C26.3953 11.7691 26.428 12.0118 26.4566 12.2689C26.4854 12.5261 26.5073 12.7377 26.5055 12.7391C26.5037 12.7406 26.312 12.7548 26.0797 12.7706C25.8474 12.7866 25.6209 12.8042 25.5763 12.8098C25.5007 12.8195 25.4937 12.8168 25.4711 12.7694C25.4578 12.7413 25.4173 12.6742 25.3812 12.6199C25.345 12.5658 25.271 12.4781 25.2166 12.4248C25.1623 12.3716 25.0611 12.293 24.9919 12.2501C24.9227 12.2073 24.7892 12.146 24.6952 12.1138C24.5371 12.0596 24.5068 12.0553 24.2906 12.055C24.1513 12.0548 24.0241 12.064 23.976 12.078C23.9314 12.0907 23.8425 12.122 23.7782 12.1472C23.7138 12.1726 23.6088 12.227 23.5444 12.2686C23.48 12.3099 23.3801 12.3918 23.3222 12.4502C23.2643 12.5088 23.1814 12.6133 23.1382 12.6825C23.0949 12.7517 23.0397 12.865 23.0152 12.9342C22.991 13.0035 22.9625 13.1128 22.9523 13.177C22.9419 13.2414 22.9332 13.3444 22.9332 13.4062C22.9331 13.4681 22.946 13.5814 22.9617 13.658C22.9775 13.7346 23.0107 13.8459 23.0357 13.9052C23.0607 13.9645 23.1154 14.0658 23.1575 14.13C23.1994 14.1943 23.2774 14.2904 23.3306 14.3436C23.384 14.3966 23.4842 14.477 23.5534 14.5221C23.6226 14.5673 23.7239 14.6223 23.7782 14.6442C23.8325 14.6662 23.9398 14.6969 24.0164 14.7127C24.093 14.7284 24.2124 14.7413 24.2816 14.7413C24.3509 14.7413 24.4703 14.7286 24.5469 14.7129C24.6235 14.6973 24.7387 14.6626 24.8031 14.6358C24.8675 14.609 24.9646 14.5577 25.0189 14.5218C25.0732 14.486 25.1703 14.4038 25.2346 14.3395C25.299 14.2753 25.3858 14.1652 25.4279 14.0953C25.47 14.0253 25.5245 13.9075 25.5493 13.8333C25.5739 13.7592 25.6004 13.6499 25.6077 13.5904C25.6151 13.5308 25.6212 13.4823 25.6212 13.4823C25.6212 13.4823 25.8356 13.4665 26.0977 13.4472C26.3599 13.428 26.576 13.414 26.5782 13.4159C26.5803 13.4181 26.6386 13.9295 26.7076 14.5525C26.7767 15.1756 26.8991 16.2801 26.9795 17.0069C27.0806 17.9202 27.1226 18.3605 27.1153 18.4319C27.1095 18.4887 27.0842 18.5819 27.059 18.6387C27.0174 18.7329 26.5915 19.1641 22.2176 23.5378C17.8471 27.9085 17.4124 28.338 17.314 28.3837C17.2174 28.4286 17.1863 28.4339 17.0173 28.4337C16.8582 28.4335 16.8129 28.4267 16.7296 28.3905C16.641 28.352 16.2529 27.97 12.9933 24.7136C10.993 22.7148 9.33278 21.0433 9.30419 20.9987C9.27578 20.9543 9.23856 20.8693 9.22165 20.8099C9.20116 20.7376 9.1936 20.6634 9.199 20.5852C9.20457 20.5042 9.22507 20.4296 9.26535 20.3424C9.32199 20.2201 9.45757 20.0826 14.065 15.4733C16.6728 12.8647 18.8469 10.7003 18.8963 10.664C18.9458 10.6275 19.0226 10.5836 19.0671 10.5665C19.1148 10.5483 19.1998 10.535 19.2739 10.5345ZM24.3086 12.6609C24.4476 12.6651 24.4875 12.6741 24.5918 12.7237C24.6623 12.7571 24.7509 12.8192 24.8031 12.8713C24.8545 12.9227 24.918 13.0132 24.9514 13.0826C25.0059 13.1959 25.0099 13.2167 25.0099 13.3928C25.0099 13.567 25.0056 13.5905 24.9539 13.6984C24.9232 13.7628 24.8624 13.8547 24.8191 13.9027C24.7668 13.9606 24.695 14.0122 24.6062 14.0555C24.4778 14.1183 24.4643 14.121 24.2816 14.121C24.0989 14.121 24.0855 14.1183 23.9571 14.0555C23.8683 14.0122 23.7965 13.9606 23.7442 13.9027C23.7008 13.8547 23.6401 13.7628 23.6093 13.6984C23.5577 13.5905 23.5534 13.5672 23.5534 13.3919C23.5534 13.2101 23.5561 13.1964 23.6189 13.0682C23.6626 12.9787 23.7133 12.9083 23.7717 12.856C23.8197 12.8129 23.8914 12.7611 23.931 12.7406C23.9706 12.7203 24.0353 12.6928 24.0749 12.6798C24.1191 12.6651 24.2092 12.6579 24.3086 12.6609Z" fill="#024731"/>
<path d="M19.0178 13.9918C19.0504 13.9583 19.1013 13.9202 19.1309 13.9071C19.1606 13.8941 19.2192 13.8832 19.2613 13.8828C19.3034 13.8825 19.364 13.8934 19.3961 13.9073C19.4312 13.9224 20.3146 14.7939 21.6058 16.0875C23.4149 17.8996 23.7607 18.254 23.7794 18.3144C23.7923 18.3567 23.7963 18.416 23.7891 18.4583C23.7824 18.4978 23.759 18.5577 23.7375 18.5913C23.7159 18.625 23.6657 18.6713 23.6262 18.6944C23.5753 18.724 23.5255 18.7364 23.4554 18.7368C23.3761 18.7373 23.3405 18.7271 23.2755 18.6852C23.2309 18.6566 22.2425 17.6793 21.0788 16.5138C19.2449 14.6769 18.9605 14.385 18.9437 14.3226C18.9331 14.2831 18.9243 14.2345 18.9243 14.2148C18.9243 14.195 18.9321 14.1506 18.9416 14.1159C18.9511 14.0813 18.9855 14.0254 19.0178 13.9918Z" fill="white"/>
<path d="M18.0659 14.9448C18.0979 14.9113 18.1483 14.8732 18.1779 14.8601C18.2076 14.8471 18.2662 14.8362 18.3083 14.8358C18.3504 14.8355 18.407 14.8435 18.4342 14.854C18.4613 14.8644 19.2025 15.5905 20.0812 16.4678C21.1784 17.5632 21.6894 18.0852 21.7126 18.1346C21.7312 18.1742 21.7464 18.2349 21.7464 18.2695C21.7464 18.304 21.7317 18.3648 21.7139 18.4043C21.6961 18.4439 21.6558 18.4985 21.6243 18.5257C21.5931 18.5528 21.533 18.5838 21.4909 18.5944C21.4348 18.6086 21.3906 18.608 21.3246 18.5924C21.2372 18.5717 21.1887 18.5252 19.647 16.9863C18.7738 16.1146 18.0441 15.3772 18.0258 15.3476C18.0073 15.3179 17.9866 15.2612 17.9796 15.2217C17.9726 15.1812 17.976 15.1183 17.9875 15.0778C17.9987 15.0383 18.0339 14.9784 18.0659 14.9448Z" fill="white"/>
<path d="M17.0834 15.9285C17.1093 15.892 17.164 15.8454 17.2048 15.8251C17.2454 15.8048 17.3132 15.7881 17.3553 15.7881C17.3974 15.7881 17.4621 15.8037 17.4991 15.8228C17.538 15.8429 18.2374 16.5293 19.1529 17.4456C20.2831 18.5773 20.7469 19.0531 20.7667 19.1011C20.7818 19.1381 20.794 19.1948 20.7938 19.227C20.7936 19.2591 20.7787 19.3178 20.7609 19.3573C20.7431 19.3969 20.7028 19.4515 20.6714 19.4787C20.6401 19.5058 20.584 19.5362 20.5469 19.5459C20.5099 19.5558 20.4674 19.5637 20.4525 19.5637C20.4376 19.5636 20.3932 19.5542 20.3536 19.5429C20.2923 19.5254 20.0458 19.287 18.6855 17.9294C17.4862 16.7326 17.0796 16.3164 17.0509 16.2556C17.0203 16.1912 17.0149 16.1563 17.0244 16.0848C17.0315 16.0321 17.0559 15.9674 17.0834 15.9285Z" fill="white"/>
<path d="M16.1308 16.8815C16.1565 16.845 16.211 16.7984 16.2518 16.7781C16.2924 16.7578 16.3543 16.7413 16.3888 16.7414C16.4235 16.7416 16.4802 16.7501 16.5147 16.7603C16.564 16.7749 17.0482 17.2496 18.7386 18.9402C20.7361 20.938 20.901 21.1076 20.9204 21.1824C20.9319 21.227 20.936 21.2876 20.9297 21.3172C20.9234 21.3469 20.9046 21.3989 20.8877 21.4327C20.8709 21.4667 20.8328 21.5123 20.8032 21.5345C20.7735 21.5566 20.7149 21.5835 20.6728 21.5943C20.6171 21.6085 20.5732 21.6085 20.511 21.5938C20.4293 21.5744 20.3312 21.4793 18.2721 19.4226C16.4332 17.5858 16.1144 17.2597 16.0891 17.1906C16.0682 17.1338 16.063 17.0856 16.0716 17.0288C16.0785 16.9842 16.1051 16.918 16.1308 16.8815Z" fill="white"/>
<path d="M15.1756 17.8359C15.2015 17.8003 15.2564 17.754 15.2977 17.7327C15.3391 17.7115 15.4053 17.6943 15.4448 17.6944C15.4844 17.6946 15.5491 17.7101 15.5887 17.7286C15.6381 17.7518 16.1596 18.2623 17.255 19.36C18.6319 20.7399 18.852 20.9675 18.8686 21.0295C18.8794 21.0691 18.8878 21.1218 18.8876 21.1464C18.8875 21.1712 18.8727 21.2237 18.8549 21.2633C18.8371 21.3029 18.7968 21.3575 18.7654 21.3847C18.7341 21.4118 18.678 21.4422 18.6409 21.4519C18.6039 21.4618 18.5615 21.4699 18.5465 21.4699C18.5316 21.4699 18.4872 21.4611 18.4476 21.4505C18.3856 21.4338 18.1567 21.2124 16.7707 19.8279C15.5453 18.6037 15.1589 18.2074 15.137 18.1526C15.1177 18.1039 15.1118 18.0517 15.1185 17.9908C15.1248 17.9348 15.1463 17.8764 15.1756 17.8359Z" fill="white"/>
<path d="M14.2581 18.746C14.2928 18.7114 14.3473 18.6757 14.3794 18.6667C14.4116 18.6577 14.4661 18.6498 14.5008 18.649C14.5355 18.6483 14.5961 18.6631 14.6357 18.6816C14.6849 18.7048 15.2058 19.2144 16.2939 20.304C17.4238 21.4357 17.8879 21.9121 17.9077 21.9601C17.9228 21.9971 17.9352 22.0518 17.9352 22.0814C17.9352 22.1111 17.9226 22.1658 17.9071 22.2028C17.8918 22.2399 17.8615 22.2895 17.8397 22.313C17.8181 22.3366 17.768 22.3708 17.7284 22.3891C17.6888 22.4074 17.6302 22.4225 17.598 22.4227C17.5659 22.4229 17.5092 22.4107 17.4722 22.3956C17.4242 22.3758 16.9478 21.9117 15.8161 20.7818C14.7265 19.6937 14.2169 19.1728 14.1937 19.1236C14.1752 19.084 14.1599 19.0274 14.1597 18.9977C14.1595 18.968 14.1674 18.9134 14.1773 18.8763C14.187 18.8393 14.2234 18.7805 14.2581 18.746Z" fill="white"/>
<path d="M13.3356 19.6732C13.3684 19.6493 13.4153 19.6236 13.4399 19.6164C13.4647 19.6091 13.5133 19.6026 13.5478 19.602C13.5825 19.6013 13.6431 19.6161 13.6827 19.6346C13.7325 19.658 14.4138 20.3286 15.897 21.8144C17.0753 22.9947 18.0436 23.9766 18.0486 23.9964C18.0537 24.0162 18.0625 24.0547 18.0684 24.0818C18.0742 24.109 18.0693 24.1698 18.0573 24.2167C18.0434 24.2715 18.0129 24.3249 17.9719 24.3657C17.931 24.4067 17.8776 24.4373 17.8228 24.4512C17.7759 24.4632 17.7111 24.4677 17.679 24.4614C17.6468 24.4549 17.6004 24.4393 17.5756 24.4265C17.5509 24.4138 16.5701 23.4419 15.3959 22.2668C13.8643 20.7338 13.2537 20.1114 13.2337 20.0631C13.2186 20.026 13.2064 19.9653 13.2064 19.9282C13.2065 19.8912 13.2224 19.8284 13.2416 19.7889C13.2607 19.7493 13.3031 19.6973 13.3356 19.6732Z" fill="white"/>
<path d="M12.388 20.6187C12.4177 20.5985 12.4623 20.5762 12.4869 20.5691C12.5118 20.562 12.5601 20.5556 12.5948 20.555C12.6295 20.5543 12.6901 20.5691 12.7297 20.5876C12.7795 20.6108 13.461 21.2816 14.9442 22.7674C17.0716 24.8983 17.0868 24.9142 17.1043 25.0034C17.114 25.0528 17.116 25.1175 17.1088 25.1472C17.1016 25.1769 17.0823 25.2274 17.066 25.2596C17.0496 25.2918 17.0138 25.3335 16.9867 25.3524C16.9595 25.3712 16.9009 25.3962 16.8563 25.4077C16.795 25.4237 16.7558 25.4237 16.6945 25.4081C16.6197 25.3889 16.4527 25.2267 14.4675 23.2444C12.9832 21.7623 12.3111 21.0794 12.2877 21.0295C12.2692 20.99 12.2539 20.9253 12.2539 20.8857C12.2537 20.8461 12.2717 20.7782 12.2938 20.7345C12.3159 20.691 12.3584 20.6388 12.388 20.6187Z" fill="white"/>
<path d="M47.4399 15.2612V6.79059H51.1065C51.8648 6.79059 52.5183 6.91563 53.0669 7.16572C53.6154 7.40773 54.039 7.75866 54.3374 8.2185C54.6359 8.67833 54.7852 9.22691 54.7852 9.86422C54.7852 10.4935 54.6359 11.038 54.3374 11.4978C54.039 11.9577 53.6154 12.3126 53.0669 12.5627C52.5183 12.8047 51.8648 12.9258 51.1065 12.9258H48.529L49.4003 12.0424V15.2612H47.4399ZM49.4003 12.2602L48.529 11.3284H50.9976C51.6026 11.3284 52.0544 11.1994 52.3529 10.9412C52.6514 10.683 52.8006 10.3241 52.8006 9.86422C52.8006 9.39632 52.6514 9.03329 52.3529 8.77514C52.0544 8.51699 51.6026 8.38791 50.9976 8.38791H48.529L49.4003 7.45614V12.2602ZM56.0516 15.2612V8.75094H57.8547V10.5903L57.6005 10.0578C57.7941 9.598 58.1047 9.25111 58.5323 9.01716C58.9599 8.77514 59.4802 8.65413 60.0933 8.65413V10.3967C60.0127 10.3886 59.94 10.3846 59.8755 10.3846C59.811 10.3765 59.7424 10.3725 59.6698 10.3725C59.1535 10.3725 58.734 10.5217 58.4113 10.8202C58.0967 11.1106 57.9394 11.5664 57.9394 12.1876V15.2612H56.0516ZM64.2545 15.358C63.5607 15.358 62.9436 15.2128 62.4031 14.9224C61.8706 14.632 61.4471 14.2367 61.1325 13.7365C60.8259 13.2283 60.6727 12.6515 60.6727 12.0061C60.6727 11.3526 60.8259 10.7758 61.1325 10.2757C61.4471 9.76741 61.8706 9.37212 62.4031 9.08976C62.9436 8.79934 63.5607 8.65413 64.2545 8.65413C64.9402 8.65413 65.5534 8.79934 66.0939 9.08976C66.6344 9.37212 67.0579 9.76338 67.3645 10.2636C67.671 10.7637 67.8243 11.3446 67.8243 12.0061C67.8243 12.6515 67.671 13.2283 67.3645 13.7365C67.0579 14.2367 66.6344 14.632 66.0939 14.9224C65.5534 15.2128 64.9402 15.358 64.2545 15.358ZM64.2545 13.8091C64.5692 13.8091 64.8515 13.7365 65.1016 13.5913C65.3517 13.4461 65.5493 13.2404 65.6945 12.9742C65.8397 12.6999 65.9124 12.3772 65.9124 12.0061C65.9124 11.6269 65.8397 11.3042 65.6945 11.038C65.5493 10.7718 65.3517 10.5661 65.1016 10.4209C64.8515 10.2757 64.5692 10.203 64.2545 10.203C63.9399 10.203 63.6575 10.2757 63.4075 10.4209C63.1574 10.5661 62.9557 10.7718 62.8024 11.038C62.6572 11.3042 62.5846 11.6269 62.5846 12.0061C62.5846 12.3772 62.6572 12.6999 62.8024 12.9742C62.9557 13.2404 63.1574 13.4461 63.4075 13.5913C63.6575 13.7365 63.9399 13.8091 64.2545 13.8091ZM71.8814 15.358C71.2683 15.358 70.7157 15.2209 70.2236 14.9466C69.7315 14.6643 69.3402 14.273 69.0498 13.7728C68.7674 13.2726 68.6263 12.6837 68.6263 12.0061C68.6263 11.3204 68.7674 10.7274 69.0498 10.2272C69.3402 9.72708 69.7315 9.33985 70.2236 9.06556C70.7157 8.79127 71.2683 8.65413 71.8814 8.65413C72.43 8.65413 72.91 8.77514 73.3214 9.01716C73.7329 9.25917 74.0515 9.62624 74.2774 10.1183C74.5033 10.6104 74.6162 11.2397 74.6162 12.0061C74.6162 12.7644 74.5073 13.3937 74.2895 13.8938C74.0717 14.3859 73.7571 14.753 73.3456 14.995C72.9423 15.237 72.4542 15.358 71.8814 15.358ZM72.2081 13.8091C72.5147 13.8091 72.793 13.7365 73.0431 13.5913C73.2932 13.4461 73.4908 13.2404 73.636 12.9742C73.7893 12.6999 73.866 12.3772 73.866 12.0061C73.866 11.6269 73.7893 11.3042 73.636 11.038C73.4908 10.7718 73.2932 10.5661 73.0431 10.4209C72.793 10.2757 72.5147 10.203 72.2081 10.203C71.8935 10.203 71.6112 10.2757 71.3611 10.4209C71.111 10.5661 70.9093 10.7718 70.756 11.038C70.6108 11.3042 70.5382 11.6269 70.5382 12.0061C70.5382 12.3772 70.6108 12.6999 70.756 12.9742C70.9093 13.2404 71.111 13.4461 71.3611 13.5913C71.6112 13.7365 71.8935 13.8091 72.2081 13.8091ZM73.9144 15.2612V13.9301L73.9507 11.994L73.8297 10.0699V6.28235H75.7174V15.2612H73.9144ZM80.2115 15.358C79.671 15.358 79.1869 15.2532 78.7594 15.0434C78.3399 14.8337 78.0131 14.515 77.7792 14.0874C77.5452 13.6518 77.4283 13.0992 77.4283 12.4296V8.75094H79.316V12.1513C79.316 12.6918 79.429 13.0911 79.6548 13.3493C79.8888 13.5994 80.2155 13.7244 80.635 13.7244C80.9254 13.7244 81.1836 13.6639 81.4095 13.5429C81.6354 13.4138 81.8128 13.2202 81.9419 12.9621C82.071 12.6958 82.1355 12.3651 82.1355 11.9698V8.75094H84.0233V15.2612H82.2323V13.4703L82.5591 13.9906C82.3412 14.4424 82.0185 14.7853 81.591 15.0192C81.1715 15.2451 80.7116 15.358 80.2115 15.358ZM88.9184 15.358C88.2165 15.358 87.5913 15.2169 87.0427 14.9345C86.4942 14.6441 86.0626 14.2448 85.7479 13.7365C85.4414 13.2283 85.2881 12.6515 85.2881 12.0061C85.2881 11.3526 85.4414 10.7758 85.7479 10.2757C86.0626 9.76741 86.4942 9.37212 87.0427 9.08976C87.5913 8.79934 88.2165 8.65413 88.9184 8.65413C89.6041 8.65413 90.2011 8.79934 90.7093 9.08976C91.2175 9.37212 91.5927 9.77951 91.8347 10.312L90.3705 11.0985C90.2011 10.792 89.9873 10.5661 89.7291 10.4209C89.479 10.2757 89.2048 10.203 88.9063 10.203C88.5836 10.203 88.2932 10.2757 88.035 10.4209C87.7769 10.5661 87.5711 10.7718 87.4179 11.038C87.2726 11.3042 87.2 11.6269 87.2 12.0061C87.2 12.3852 87.2726 12.7079 87.4179 12.9742C87.5711 13.2404 87.7769 13.4461 88.035 13.5913C88.2932 13.7365 88.5836 13.8091 88.9063 13.8091C89.2048 13.8091 89.479 13.7405 89.7291 13.6034C89.9873 13.4582 90.2011 13.2283 90.3705 12.9137L91.8347 13.7123C91.5927 14.2367 91.2175 14.6441 90.7093 14.9345C90.2011 15.2169 89.6041 15.358 88.9184 15.358ZM95.6783 15.358C94.912 15.358 94.315 15.1644 93.8874 14.7772C93.4598 14.3819 93.2461 13.797 93.2461 13.0226V7.31093H95.1338V12.9984C95.1338 13.2726 95.2064 13.4864 95.3516 13.6397C95.4968 13.7849 95.6945 13.8575 95.9446 13.8575C96.2431 13.8575 96.4972 13.7769 96.7069 13.6155L97.2152 14.9466C97.0215 15.0838 96.7876 15.1886 96.5133 15.2612C96.2471 15.3258 95.9688 15.358 95.6783 15.358ZM92.2417 10.3483V8.89615H96.7553V10.3483H92.2417ZM105.889 15.4064C105.235 15.4064 104.626 15.3016 104.062 15.0918C103.505 14.874 103.021 14.5674 102.609 14.1721C102.198 13.7769 101.875 13.313 101.641 12.7805C101.415 12.2481 101.303 11.6632 101.303 11.0259C101.303 10.3886 101.415 9.80372 101.641 9.27128C101.875 8.73884 102.198 8.27497 102.609 7.87967C103.029 7.48437 103.517 7.18185 104.074 6.9721C104.63 6.75428 105.239 6.64538 105.901 6.64538C106.635 6.64538 107.297 6.77445 107.885 7.03261C108.482 7.28269 108.983 7.65379 109.386 8.14589L108.127 9.30758C107.837 8.97682 107.514 8.73077 107.159 8.56942C106.804 8.40001 106.417 8.3153 105.998 8.3153C105.602 8.3153 105.239 8.37984 104.909 8.50892C104.578 8.63799 104.291 8.82354 104.049 9.06556C103.807 9.30758 103.618 9.59397 103.481 9.92473C103.352 10.2555 103.287 10.6225 103.287 11.0259C103.287 11.4293 103.352 11.7963 103.481 12.1271C103.618 12.4579 103.807 12.7442 104.049 12.9863C104.291 13.2283 104.578 13.4138 104.909 13.5429C105.239 13.672 105.602 13.7365 105.998 13.7365C106.417 13.7365 106.804 13.6558 107.159 13.4945C107.514 13.3251 107.837 13.071 108.127 12.7321L109.386 13.8938C108.983 14.3859 108.482 14.7611 107.885 15.0192C107.297 15.2774 106.631 15.4064 105.889 15.4064ZM113.45 15.358C112.756 15.358 112.139 15.2128 111.599 14.9224C111.066 14.632 110.643 14.2367 110.328 13.7365C110.021 13.2283 109.868 12.6515 109.868 12.0061C109.868 11.3526 110.021 10.7758 110.328 10.2757C110.643 9.76741 111.066 9.37212 111.599 9.08976C112.139 8.79934 112.756 8.65413 113.45 8.65413C114.136 8.65413 114.749 8.79934 115.289 9.08976C115.83 9.37212 116.253 9.76338 116.56 10.2636C116.866 10.7637 117.02 11.3446 117.02 12.0061C117.02 12.6515 116.866 13.2283 116.56 13.7365C116.253 14.2367 115.83 14.632 115.289 14.9224C114.749 15.2128 114.136 15.358 113.45 15.358ZM113.45 13.8091C113.765 13.8091 114.047 13.7365 114.297 13.5913C114.547 13.4461 114.745 13.2404 114.89 12.9742C115.035 12.6999 115.108 12.3772 115.108 12.0061C115.108 11.6269 115.035 11.3042 114.89 11.038C114.745 10.7718 114.547 10.5661 114.297 10.4209C114.047 10.2757 113.765 10.203 113.45 10.203C113.135 10.203 112.853 10.2757 112.603 10.4209C112.353 10.5661 112.151 10.7718 111.998 11.038C111.853 11.3042 111.78 11.6269 111.78 12.0061C111.78 12.3772 111.853 12.6999 111.998 12.9742C112.151 13.2404 112.353 13.4461 112.603 13.5913C112.853 13.7365 113.135 13.8091 113.45 13.8091ZM121.077 15.358C120.464 15.358 119.911 15.2209 119.419 14.9466C118.927 14.6643 118.536 14.273 118.245 13.7728C117.963 13.2726 117.822 12.6837 117.822 12.0061C117.822 11.3204 117.963 10.7274 118.245 10.2272C118.536 9.72708 118.927 9.33985 119.419 9.06556C119.911 8.79127 120.464 8.65413 121.077 8.65413C121.625 8.65413 122.105 8.77514 122.517 9.01716C122.928 9.25917 123.247 9.62624 123.473 10.1183C123.699 10.6104 123.812 11.2397 123.812 12.0061C123.812 12.7644 123.703 13.3937 123.485 13.8938C123.267 14.3859 122.952 14.753 122.541 14.995C122.138 15.237 121.65 15.358 121.077 15.358ZM121.404 13.8091C121.71 13.8091 121.988 13.7365 122.239 13.5913C122.489 13.4461 122.686 13.2404 122.831 12.9742C122.985 12.6999 123.061 12.3772 123.061 12.0061C123.061 11.6269 122.985 11.3042 122.831 11.038C122.686 10.7718 122.489 10.5661 122.239 10.4209C121.988 10.2757 121.71 10.203 121.404 10.203C121.089 10.203 120.807 10.2757 120.557 10.4209C120.306 10.5661 120.105 10.7718 119.951 11.038C119.806 11.3042 119.734 11.6269 119.734 12.0061C119.734 12.3772 119.806 12.6999 119.951 12.9742C120.105 13.2404 120.306 13.4461 120.557 13.5913C120.807 13.7365 121.089 13.8091 121.404 13.8091ZM123.11 15.2612V13.9301L123.146 11.994L123.025 10.0699V6.28235H124.913V15.2612H123.11ZM129.891 15.358C129.149 15.358 128.495 15.2128 127.931 14.9224C127.374 14.632 126.942 14.2367 126.636 13.7365C126.329 13.2283 126.176 12.6515 126.176 12.0061C126.176 11.3526 126.325 10.7758 126.624 10.2757C126.93 9.76741 127.346 9.37212 127.87 9.08976C128.394 8.79934 128.987 8.65413 129.649 8.65413C130.286 8.65413 130.859 8.79127 131.367 9.06556C131.884 9.33178 132.291 9.71901 132.589 10.2272C132.888 10.7274 133.037 11.3284 133.037 12.0303C133.037 12.1029 133.033 12.1876 133.025 12.2844C133.017 12.3731 133.009 12.4579 133.001 12.5385H127.713V11.4373H132.009L131.283 11.7641C131.283 11.4252 131.214 11.1308 131.077 10.8807C130.94 10.6306 130.75 10.437 130.508 10.2999C130.266 10.1546 129.984 10.082 129.661 10.082C129.338 10.082 129.052 10.1546 128.802 10.2999C128.56 10.437 128.37 10.6346 128.233 10.8928C128.096 11.1429 128.027 11.4414 128.027 11.7883V12.0787C128.027 12.4336 128.104 12.7483 128.257 13.0226C128.419 13.2888 128.641 13.4945 128.923 13.6397C129.213 13.7769 129.552 13.8454 129.939 13.8454C130.286 13.8454 130.589 13.793 130.847 13.6881C131.113 13.5832 131.355 13.4259 131.573 13.2162L132.577 14.3053C132.279 14.6441 131.904 14.9063 131.452 15.0918C131 15.2693 130.48 15.358 129.891 15.358Z" fill="black"/>
<path d="M49.4608 31.1837C48.6742 31.1837 48.0591 31.0123 47.6154 30.6694C47.1784 30.3266 46.9599 29.8492 46.9599 29.2375C46.9599 28.9148 47.0238 28.6291 47.1515 28.3803C47.286 28.1249 47.4708 27.9165 47.7061 27.7551C47.9414 27.5938 48.2137 27.4896 48.523 27.4425V27.5131C48.2473 27.4459 48.0019 27.3316 47.7868 27.1702C47.5784 27.0022 47.4137 26.8005 47.2927 26.5652C47.1784 26.3299 47.1213 26.0744 47.1213 25.7988C47.1213 25.2072 47.333 24.7467 47.7566 24.4173C48.1868 24.0811 48.7549 23.9131 49.4608 23.9131C50.1734 23.9131 50.7415 24.0811 51.165 24.4173C51.5885 24.7467 51.8003 25.2072 51.8003 25.7988C51.8003 26.0744 51.7398 26.3299 51.6188 26.5652C51.5045 26.8005 51.3431 27.0022 51.1347 27.1702C50.9263 27.3316 50.681 27.4459 50.3986 27.5131V27.4425C50.7011 27.4896 50.97 27.5938 51.2053 27.7551C51.4406 27.9165 51.6255 28.1249 51.76 28.3803C51.8944 28.6291 51.9616 28.9148 51.9616 29.2375C51.9616 29.8492 51.7398 30.3266 51.2961 30.6694C50.8591 31.0123 50.2473 31.1837 49.4608 31.1837ZM49.4608 30.619C50.0658 30.619 50.5263 30.5013 50.8423 30.266C51.1583 30.024 51.3163 29.6677 51.3163 29.1971C51.3163 28.7265 51.1583 28.3736 50.8423 28.1383C50.5263 27.903 50.0658 27.7854 49.4608 27.7854C48.8557 27.7854 48.3952 27.903 48.0793 28.1383C47.7633 28.3736 47.6053 28.7265 47.6053 29.1971C47.6053 29.6677 47.7633 30.024 48.0793 30.266C48.3952 30.5013 48.8557 30.619 49.4608 30.619ZM49.4608 27.2106C49.9919 27.2106 50.4053 27.0896 50.7011 26.8475C51.0036 26.6055 51.1549 26.266 51.1549 25.829C51.1549 25.4055 51.0036 25.0761 50.7011 24.8408C50.4053 24.5988 49.9919 24.4778 49.4608 24.4778C48.9364 24.4778 48.523 24.5988 48.2204 24.8408C47.9179 25.0761 47.7666 25.4089 47.7666 25.8391C47.7666 26.2694 47.9179 26.6055 48.2204 26.8475C48.523 27.0896 48.9364 27.2106 49.4608 27.2106ZM55.5073 31.1837C54.7207 31.1837 54.1056 31.0123 53.6619 30.6694C53.2249 30.3266 53.0064 29.8492 53.0064 29.2375C53.0064 28.9148 53.0703 28.6291 53.198 28.3803C53.3325 28.1249 53.5174 27.9165 53.7527 27.7551C53.988 27.5938 54.2602 27.4896 54.5695 27.4425V27.5131C54.2938 27.4459 54.0485 27.3316 53.8333 27.1702C53.6249 27.0022 53.4602 26.8005 53.3392 26.5652C53.2249 26.3299 53.1678 26.0744 53.1678 25.7988C53.1678 25.2072 53.3796 24.7467 53.8031 24.4173C54.2333 24.0811 54.8014 23.9131 55.5073 23.9131C56.2199 23.9131 56.788 24.0811 57.2115 24.4173C57.635 24.7467 57.8468 25.2072 57.8468 25.7988C57.8468 26.0744 57.7863 26.3299 57.6653 26.5652C57.551 26.8005 57.3897 27.0022 57.1813 27.1702C56.9729 27.3316 56.7275 27.4459 56.4451 27.5131V27.4425C56.7476 27.4896 57.0166 27.5938 57.2518 27.7551C57.4871 27.9165 57.672 28.1249 57.8065 28.3803C57.9409 28.6291 58.0082 28.9148 58.0082 29.2375C58.0082 29.8492 57.7863 30.3266 57.3426 30.6694C56.9056 31.0123 56.2939 31.1837 55.5073 31.1837ZM55.5073 30.619C56.1123 30.619 56.5728 30.5013 56.8888 30.266C57.2048 30.024 57.3628 29.6677 57.3628 29.1971C57.3628 28.7265 57.2048 28.3736 56.8888 28.1383C56.5728 27.903 56.1123 27.7854 55.5073 27.7854C54.9023 27.7854 54.4417 27.903 54.1258 28.1383C53.8098 28.3736 53.6518 28.7265 53.6518 29.1971C53.6518 29.6677 53.8098 30.024 54.1258 30.266C54.4417 30.5013 54.9023 30.619 55.5073 30.619ZM55.5073 27.2106C56.0384 27.2106 56.4518 27.0896 56.7476 26.8475C57.0502 26.6055 57.2014 26.266 57.2014 25.829C57.2014 25.4055 57.0502 25.0761 56.7476 24.8408C56.4518 24.5988 56.0384 24.4778 55.5073 24.4778C54.9829 24.4778 54.5695 24.5988 54.267 24.8408C53.9644 25.0761 53.8132 25.4089 53.8132 25.8391C53.8132 26.2694 53.9644 26.6055 54.267 26.8475C54.5695 27.0896 54.9829 27.2106 55.5073 27.2106ZM61.5538 31.1837C60.7673 31.1837 60.1521 31.0123 59.7084 30.6694C59.2714 30.3266 59.053 29.8492 59.053 29.2375C59.053 28.9148 59.1168 28.6291 59.2446 28.3803C59.379 28.1249 59.5639 27.9165 59.7992 27.7551C60.0345 27.5938 60.3068 27.4896 60.616 27.4425V27.5131C60.3404 27.4459 60.095 27.3316 59.8799 27.1702C59.6715 27.0022 59.5067 26.8005 59.3857 26.5652C59.2714 26.3299 59.2143 26.0744 59.2143 25.7988C59.2143 25.2072 59.4261 24.7467 59.8496 24.4173C60.2799 24.0811 60.8479 23.9131 61.5538 23.9131C62.2664 23.9131 62.8345 24.0811 63.258 24.4173C63.6816 24.7467 63.8933 25.2072 63.8933 25.7988C63.8933 26.0744 63.8328 26.3299 63.7118 26.5652C63.5975 26.8005 63.4362 27.0022 63.2278 27.1702C63.0194 27.3316 62.774 27.4459 62.4916 27.5131V27.4425C62.7942 27.4896 63.0631 27.5938 63.2984 27.7551C63.5337 27.9165 63.7185 28.1249 63.853 28.3803C63.9874 28.6291 64.0547 28.9148 64.0547 29.2375C64.0547 29.8492 63.8328 30.3266 63.3891 30.6694C62.9521 31.0123 62.3404 31.1837 61.5538 31.1837ZM61.5538 30.619C62.1589 30.619 62.6194 30.5013 62.9353 30.266C63.2513 30.024 63.4093 29.6677 63.4093 29.1971C63.4093 28.7265 63.2513 28.3736 62.9353 28.1383C62.6194 27.903 62.1589 27.7854 61.5538 27.7854C60.9488 27.7854 60.4883 27.903 60.1723 28.1383C59.8563 28.3736 59.6983 28.7265 59.6983 29.1971C59.6983 29.6677 59.8563 30.024 60.1723 30.266C60.4883 30.5013 60.9488 30.619 61.5538 30.619ZM61.5538 27.2106C62.0849 27.2106 62.4984 27.0896 62.7942 26.8475C63.0967 26.6055 63.2479 26.266 63.2479 25.829C63.2479 25.4055 63.0967 25.0761 62.7942 24.8408C62.4984 24.5988 62.0849 24.4778 61.5538 24.4778C61.0294 24.4778 60.616 24.5988 60.3135 24.8408C60.0109 25.0761 59.8597 25.4089 59.8597 25.8391C59.8597 26.2694 60.0109 26.6055 60.3135 26.8475C60.616 27.0896 61.0294 27.2106 61.5538 27.2106ZM65.7146 31.103V30.5282H67.5297V24.5383L67.9029 24.5685L66.0474 25.7786L65.7449 25.2744L67.7012 23.9937H68.1852V30.5282H69.8592V31.103H65.7146Z" fill="black"/>
</svg>
