<svg width="326" height="89" viewBox="0 0 326 89" fill="none" xmlns="http://www.w3.org/2000/svg">
<path d="M3.04775 51.6734L3.01167 26.5881L13.87 26.5654C16.1158 26.5607 18.0515 26.927 19.6771 27.6642C21.3027 28.3776 22.5585 29.4142 23.4444 30.7741C24.3303 32.1341 24.7746 33.7577 24.7773 35.6451C24.78 37.5086 24.3403 39.1221 23.4583 40.4857C22.5763 41.8255 21.3235 42.8554 19.7 43.5755C18.0764 44.2956 16.1418 44.658 13.8961 44.6627L6.26295 44.6786L8.8395 42.1289L8.85321 51.6613L3.04775 51.6734ZM18.9948 51.6402L12.7104 42.5508L18.9101 42.5379L25.2662 51.6271L18.9948 51.6402ZM8.84043 42.7739L6.2563 40.0558L13.5669 40.0405C15.3587 40.0368 16.696 39.6517 17.5789 38.8854C18.4617 38.0951 18.9021 37.0191 18.9002 35.6573C18.8982 34.2717 18.4547 33.1975 17.5696 32.4349C16.6846 31.6722 15.3461 31.2927 13.5543 31.2965L6.24373 31.3117L8.81997 28.5469L8.84043 42.7739ZM29.0416 51.6192L29.0362 47.8564L38.6988 38.698C39.4623 38.0035 40.0228 37.3812 40.3804 36.831C40.738 36.2807 40.9762 35.7785 41.095 35.3243C41.2377 34.8701 41.3087 34.4519 41.3082 34.0696C41.3067 33.0662 40.9592 32.3024 40.2656 31.7783C39.5959 31.2302 38.604 30.9575 37.2901 30.9602C36.2389 30.9624 35.2596 31.1676 34.3524 31.5756C33.469 31.9836 32.7173 32.6183 32.0974 33.4796L27.8648 30.7649C28.8184 29.3295 30.1546 28.1918 31.8736 27.3521C33.5925 26.5123 35.5749 26.0901 37.8206 26.0854C39.6841 26.0815 41.3091 26.3887 42.6956 27.007C44.1061 27.6013 45.1943 28.4472 45.9604 29.5445C46.7504 30.6419 47.1465 31.955 47.1487 33.4841C47.1498 34.2963 47.0435 35.1089 46.8296 35.9216C46.6396 36.7104 46.2347 37.5474 45.6148 38.4327C45.0188 39.3179 44.1363 40.3112 42.9672 41.4126L34.9508 48.9908L33.8368 46.8788L47.9921 46.8493L47.9989 51.5796L29.0416 51.6192ZM60.3574 51.9839C58.6134 51.9875 56.881 51.7642 55.1602 51.3138C53.4633 50.8396 52.005 50.1737 50.7853 49.3161L53.0724 44.8677C54.029 45.5585 55.1288 46.1057 56.3717 46.5092C57.6385 46.9127 58.917 47.1131 60.2071 47.1105C61.6644 47.1074 62.8107 46.8183 63.6461 46.2432C64.4815 45.6681 64.8984 44.8669 64.8969 43.8396C64.896 43.1945 64.7279 42.6215 64.3927 42.1205C64.0575 41.6195 63.4597 41.2385 62.5993 40.9774C61.7627 40.7164 60.5799 40.5875 59.0509 40.5907L52.6362 40.604L53.906 26.4819L69.2081 26.4499L69.2148 31.1087L55.9912 31.1362L58.9977 28.4781L58.1162 38.5499L55.1022 35.9043L60.406 35.8933C62.8906 35.8881 64.886 36.2303 66.3921 36.92C67.9221 37.5858 69.0343 38.5033 69.7288 39.6725C70.4233 40.8417 70.7717 42.1669 70.7738 43.6481C70.7759 45.1293 70.4076 46.5038 69.6688 47.7716C68.93 49.0155 67.7847 50.0332 66.2329 50.8249C64.705 51.5926 62.7465 51.9789 60.3574 51.9839ZM85.3254 51.9318C83.2708 51.9361 81.4305 51.4382 79.8045 50.4382C78.1785 49.4143 76.8982 47.9357 75.9636 46.0025C75.0291 44.0693 74.5599 41.7289 74.5559 38.9815C74.552 36.2341 75.0145 33.8918 75.9434 31.9547C76.8724 30.0176 78.1484 28.5456 79.7716 27.5388C81.3947 26.5081 83.2335 25.9906 85.2881 25.9864C87.3666 25.982 89.207 26.4918 90.8091 27.5158C92.4351 28.5158 93.7154 29.9824 94.6499 31.9157C95.5845 33.8489 96.0537 36.1892 96.0576 38.9366C96.0616 41.6841 95.5991 44.0264 94.6701 45.9635C93.7412 47.9006 92.4651 49.3845 90.842 50.4151C89.2428 51.4219 87.4039 51.9274 85.3254 51.9318ZM85.3184 47.0222C86.2979 47.0202 87.1456 46.7437 87.8616 46.1927C88.6014 45.6416 89.1735 44.7684 89.5779 43.573C90.0063 42.3776 90.2191 40.8362 90.2163 38.9488C90.2136 37.0615 89.9964 35.5209 89.5646 34.3273C89.1568 33.1336 88.5821 32.2628 87.8407 31.7148C87.1232 31.1668 86.2747 30.8939 85.2952 30.8959C84.3396 30.8979 83.4918 31.1744 82.752 31.7255C82.0361 32.2764 81.4639 33.1497 81.0356 34.3451C80.6312 35.5405 80.4303 37.0819 80.4331 38.9692C80.4358 40.8566 80.6411 42.3971 81.0489 43.5908C81.4807 44.7845 82.0553 45.6553 82.7728 46.2033C83.5142 46.7512 84.3627 47.0242 85.3184 47.0222ZM106.403 51.4578L106.374 31.1028L98.3464 31.1195L98.3396 26.3892L120.2 26.3435L120.206 31.0739L112.179 31.0907L112.208 51.4457L106.403 51.4578ZM130.111 36.4287L142.188 36.4035L142.194 40.9189L130.117 40.9441L130.111 36.4287ZM130.556 46.7486L144.209 46.7202L144.216 51.3789L124.793 51.4194L124.757 26.334L143.714 26.2945L143.721 30.9532L130.533 30.9807L130.556 46.7486ZM166.475 51.7625C164.778 51.766 163.213 51.4587 161.779 50.8405C160.368 50.1984 159.208 49.293 158.299 48.1242L161.518 44.2472C162.212 45.1536 162.942 45.8449 163.707 46.3211C164.472 46.7734 165.297 46.9987 166.181 46.9968C168.546 46.9919 169.727 45.6038 169.723 42.8324L169.706 30.899L160.89 30.9174L160.883 26.2587L175.469 26.2282L175.492 42.4979C175.496 45.6037 174.735 47.9227 173.208 49.4549C171.682 50.9871 169.437 51.7563 166.475 51.7625ZM193.818 51.7054C190.258 51.7128 187.474 50.7272 185.464 48.7484C183.454 46.7697 182.447 43.9407 182.442 40.2615L182.421 26.2137L188.227 26.2016L188.247 40.0344C188.25 42.4235 188.742 44.1426 189.723 45.1917C190.704 46.2409 192.079 46.7636 193.847 46.7599C195.615 46.7562 196.988 46.2278 197.966 45.1745C198.944 44.1213 199.431 42.4001 199.428 40.0111L199.408 26.1783L205.141 26.1663L205.162 40.2141C205.167 43.8933 204.168 46.7264 202.164 48.7136C200.16 50.7007 197.378 51.698 193.818 51.7054ZM212.348 51.2367L212.312 26.1513L217.114 26.1413L227.818 43.8221L225.274 43.8274L235.749 26.1024L240.515 26.0925L240.623 51.1777L235.176 51.1891L235.116 34.4536L236.119 34.4515L227.754 48.5527L225.138 48.5581L216.552 34.4924L217.771 34.4898L217.795 51.2253L212.348 51.2367ZM248.008 51.1623L247.972 26.0769L260.228 26.0514C263.381 26.0448 265.747 26.6371 267.326 27.8284C268.928 29.0196 269.731 30.5947 269.734 32.5537C269.735 33.8677 269.415 35.0152 268.771 35.996C268.127 36.953 267.244 37.6955 266.122 38.2234C265 38.7514 263.71 39.0168 262.253 39.0199L262.932 37.5492C264.509 37.5459 265.907 37.8058 267.126 38.3288C268.345 38.828 269.29 39.5786 269.96 40.5806C270.654 41.5826 271.003 42.8122 271.005 44.2696C271.008 46.4197 270.162 48.1058 268.468 49.3278C266.773 50.5259 264.277 51.1283 260.98 51.1352L248.008 51.1623ZM253.771 46.7782L260.544 46.7641C262.049 46.761 263.184 46.5197 263.947 46.0403C264.735 45.5369 265.128 44.7477 265.127 43.6726C265.125 42.6214 264.73 41.8458 263.941 41.3457C263.175 40.8217 262.04 40.5613 260.535 40.5644L253.332 40.5795L253.326 36.3508L259.526 36.3379C260.935 36.3349 262.01 36.0938 262.75 35.6144C263.514 35.1111 263.895 34.3577 263.893 33.3543C263.892 32.3748 263.509 31.6469 262.743 31.1707C262.002 30.6705 260.927 30.4219 259.517 30.4249L253.747 30.4369L253.771 46.7782ZM289.028 51.5067C287.045 51.5109 285.205 51.1922 283.508 50.5507C281.835 49.9091 280.376 49.0043 279.132 47.8362C277.912 46.6681 276.954 45.2964 276.259 43.7211C275.588 42.1457 275.251 40.4262 275.248 38.5627C275.246 36.6993 275.578 34.9784 276.244 33.4002C276.935 31.822 277.901 30.4462 279.141 29.273C280.382 28.0998 281.838 27.1889 283.509 26.5403C285.181 25.8918 286.996 25.5655 288.955 25.5614C290.938 25.5572 292.754 25.876 294.403 26.5176C296.077 27.1592 297.523 28.064 298.744 29.2321C299.988 30.4002 300.957 31.7719 301.652 33.3472C302.347 34.8987 302.696 36.6181 302.699 38.5055C302.702 40.3689 302.358 42.1018 301.667 43.7039C300.977 45.2821 300.011 46.6579 298.77 47.8311C297.554 48.9804 296.109 49.8793 294.438 50.5279C292.79 51.1764 290.987 51.5027 289.028 51.5067ZM288.985 46.5614C290.108 46.5591 291.135 46.3658 292.066 45.9816C293.021 45.5974 293.857 45.0461 294.572 44.3279C295.288 43.6097 295.836 42.7604 296.217 41.7801C296.622 40.7997 296.823 39.7123 296.822 38.5177C296.82 37.3232 296.615 36.2366 296.208 35.2579C295.824 34.2792 295.273 33.4322 294.556 32.717C293.862 32.0017 293.037 31.4539 292.081 31.0737C291.124 30.6934 290.085 30.5044 288.962 30.5068C287.839 30.5091 286.8 30.7024 285.845 31.0867C284.914 31.4709 284.091 32.0221 283.375 32.7403C282.659 33.4585 282.099 34.3078 281.694 35.2882C281.313 36.2685 281.124 37.3559 281.125 38.5505C281.127 39.7211 281.32 40.8078 281.704 41.8104C282.111 42.7891 282.662 43.636 283.356 44.3513C284.073 45.0665 284.91 45.6143 285.867 45.9945C286.823 46.3748 287.862 46.5638 288.985 46.5614Z" fill="#490606"/>
<path d="M38.539 78.5815C38.0865 77.8618 37.7368 77.0311 37.4899 76.0892C37.243 75.1395 37.1187 74.1183 37.117 73.0255C37.1153 71.9327 37.2365 70.911 37.4805 69.9603C37.7245 69.0017 38.0716 68.1696 38.5219 67.464L39.6028 67.4618C39.129 68.3021 38.7819 69.1818 38.5616 70.1007C38.3413 71.0118 38.2319 71.986 38.2335 73.0233C38.2351 74.0606 38.3475 75.0384 38.5706 75.9565C38.7937 76.8667 39.1435 77.741 39.6199 78.5794L38.539 78.5815ZM41.2426 76.272L41.2298 67.9575L42.4176 67.9552L42.4303 76.2696L41.2426 76.272ZM44.9196 76.2648L44.9068 67.9504L45.8808 67.9485L49.62 74.2245L49.0974 74.2255L52.7698 67.935L53.7438 67.9331L53.7685 76.2475L52.6282 76.2497L52.6063 69.7289L52.8795 69.7283L49.6097 75.246L49.0633 75.2471L45.7529 69.7422L46.0498 69.7417L46.0598 76.2625L44.9196 76.2648ZM56.2637 76.2426L56.2509 67.9282L57.4387 67.9259L57.4499 75.2069L61.9516 75.1981L61.9531 76.2315L56.2637 76.2426ZM66.5059 76.2226L66.4932 67.9082L67.4671 67.9063L71.2064 74.1823L70.6838 74.1834L74.3562 67.8928L75.3302 67.8909L75.3548 76.2053L74.2146 76.2076L74.1927 69.6867L74.4659 69.6862L71.1961 75.2038L70.6497 75.2049L67.3392 69.7001L67.6362 69.6995L67.6462 76.2204L66.5059 76.2226ZM81.6036 76.2882C80.9701 76.2894 80.38 76.1836 79.8333 75.9709C79.2945 75.7582 78.8269 75.4621 78.4304 75.0828C78.0339 74.6956 77.7244 74.2448 77.5018 73.7306C77.2793 73.2163 77.1676 72.6543 77.1667 72.0446C77.1657 71.4349 77.2757 70.8724 77.4967 70.3573C77.7176 69.8422 78.0257 69.3942 78.4211 69.0133C78.8164 68.6245 79.2831 68.3227 79.8213 68.1078C80.3594 67.893 80.9491 67.7849 81.5905 67.7837C82.224 67.7825 82.8062 67.8882 83.3371 68.101C83.8758 68.3058 84.3435 68.6018 84.74 68.9891C85.1444 69.3684 85.4539 69.8152 85.6685 70.3294C85.891 70.8437 86.0028 71.4097 86.0037 72.0273C86.0047 72.645 85.8947 73.2113 85.6737 73.7265C85.4607 74.2416 85.1526 74.6936 84.7494 75.0824C84.354 75.4632 83.8873 75.7611 83.3492 75.9759C82.8189 76.1828 82.2371 76.2869 81.6036 76.2882ZM81.602 75.231C82.0613 75.2301 82.4848 75.1501 82.8725 74.991C83.2682 74.8319 83.6084 74.6095 83.893 74.3239C84.1855 74.0303 84.4107 73.6894 84.5685 73.301C84.7342 72.9127 84.8166 72.4889 84.8159 72.0296C84.8152 71.5704 84.7314 71.1469 84.5646 70.7592C84.4056 70.3715 84.1794 70.0354 83.886 69.7509C83.6005 69.4585 83.2596 69.2335 82.8634 69.0759C82.4752 68.9183 82.0514 68.8399 81.5922 68.8408C81.125 68.8417 80.6935 68.9218 80.2979 69.0809C79.9101 69.24 79.5699 69.4664 79.2774 69.7599C78.9849 70.0456 78.7557 70.3825 78.5901 70.7709C78.4323 71.1592 78.3537 71.583 78.3545 72.0423C78.3552 72.5015 78.435 72.925 78.594 73.3127C78.7608 73.7004 78.991 74.0404 79.2844 74.3329C79.5779 74.6173 79.9187 74.8384 80.3069 74.996C80.7031 75.1536 81.1348 75.2319 81.602 75.231ZM91.579 76.2687C90.9456 76.2699 90.3555 76.1642 89.8088 75.9514C89.27 75.7387 88.8023 75.4427 88.4058 75.0633C88.0093 74.6761 87.6998 74.2254 87.4773 73.7111C87.2548 73.1968 87.1431 72.6348 87.1421 72.0251C87.1412 71.4154 87.2512 70.8529 87.4721 70.3378C87.693 69.8227 88.0012 69.3747 88.3965 68.9938C88.7918 68.605 89.2586 68.3032 89.7967 68.0884C90.3348 67.8735 90.9246 67.7655 91.566 67.7642C92.1995 67.763 92.7816 67.8687 93.3125 68.0815C93.8513 68.2863 94.3189 68.5824 94.7154 68.9696C95.1199 69.3489 95.4294 69.7957 95.644 70.31C95.8665 70.8242 95.9782 71.3902 95.9792 72.0078C95.9801 72.6255 95.8701 73.1919 95.6492 73.707C95.4362 74.2221 95.1281 74.6741 94.7248 75.0629C94.3295 75.4437 93.8627 75.7416 93.3246 75.9564C92.7944 76.1634 92.2125 76.2674 91.579 76.2687ZM94.3016 77.9025C94.0244 77.903 93.7591 77.8679 93.5056 77.7971C93.2521 77.7343 92.9985 77.6279 92.7449 77.4779C92.4913 77.3359 92.2297 77.1464 91.9601 76.9093C91.6905 76.6802 91.3971 76.3957 91.0799 76.0558L92.3503 75.7208C92.5883 76.0133 92.8143 76.2504 93.0284 76.4321C93.2504 76.6217 93.4684 76.7559 93.6823 76.8347C93.8962 76.9214 94.1061 76.9645 94.312 76.9641C94.9059 76.963 95.4123 76.7244 95.8313 76.2485L96.3906 76.9244C95.8531 77.5748 95.1568 77.9008 94.3016 77.9025ZM91.5774 75.2116C92.0367 75.2107 92.4602 75.1306 92.848 74.9715C93.2437 74.8124 93.5838 74.586 93.8684 74.2925C94.161 73.9989 94.3861 73.658 94.5439 73.2697C94.7096 72.8814 94.7921 72.4615 94.7914 72.0102C94.7907 71.5509 94.7069 71.1274 94.54 70.7397C94.381 70.352 94.1548 70.0159 93.8614 69.7314C93.5759 69.439 93.2351 69.214 92.8389 69.0564C92.4506 68.8988 92.0269 68.8204 91.5676 68.8213C91.1004 68.8222 90.669 68.9023 90.2733 69.0614C89.8855 69.2205 89.5454 69.4469 89.2529 69.7404C88.9603 70.0261 88.7312 70.3631 88.5655 70.7514C88.4077 71.1397 88.3292 71.5635 88.3299 72.0228C88.3306 72.4741 88.4104 72.8937 88.5694 73.2814C88.7363 73.669 88.9664 74.0091 89.2599 74.3015C89.5533 74.5939 89.8941 74.8189 90.2824 74.9765C90.6786 75.1341 91.1102 75.2125 91.5774 75.2116ZM100.416 73.3889L100.415 72.403L103.61 72.3968L103.612 73.3826L100.416 73.3889ZM109.452 76.1387L109.44 68.2994L109.952 68.8567L107.564 68.8614L107.563 67.828L110.615 67.822L110.628 76.1365L109.452 76.1387ZM115.844 76.2213C115.195 76.2226 114.612 76.0574 114.097 75.7258C113.59 75.3942 113.185 74.912 112.883 74.2791C112.589 73.6462 112.442 72.8784 112.44 71.9757C112.439 71.073 112.584 70.3046 112.876 69.6706C113.176 69.0365 113.579 68.5527 114.086 68.2191C114.6 67.8855 115.181 67.7181 115.831 67.7168C116.472 67.7156 117.05 67.8807 117.566 68.2123C118.081 68.5439 118.486 69.0261 118.779 69.659C119.073 70.2919 119.221 71.0597 119.222 71.9624C119.224 72.8652 119.079 73.6335 118.787 74.2676C118.495 74.9016 118.091 75.3855 117.577 75.719C117.063 76.0526 116.485 76.22 115.844 76.2213ZM115.842 75.1642C116.278 75.1633 116.658 75.0438 116.982 74.8056C117.314 74.5674 117.571 74.2106 117.752 73.7351C117.942 73.2596 118.036 72.6695 118.035 71.9648C118.034 71.26 117.938 70.6703 117.747 70.1955C117.564 69.7208 117.306 69.365 116.973 69.128C116.648 68.8911 116.268 68.7731 115.832 68.7739C115.397 68.7748 115.013 68.8943 114.681 69.1325C114.349 69.3707 114.088 69.7276 113.899 70.2031C113.717 70.6785 113.627 71.2686 113.628 71.9734C113.629 72.6781 113.721 73.2679 113.904 73.7426C114.095 74.2174 114.357 74.5732 114.69 74.8101C115.022 75.047 115.407 75.165 115.842 75.1642ZM123.766 76.2058C123.117 76.2071 122.535 76.0419 122.019 75.7104C121.512 75.3788 121.108 74.8965 120.806 74.2636C120.512 73.6307 120.364 72.8629 120.363 71.9602C120.361 71.0575 120.507 70.2891 120.799 69.6551C121.099 69.021 121.502 68.5372 122.008 68.2036C122.522 67.87 123.104 67.7026 123.753 67.7014C124.395 67.7001 124.973 67.8653 125.488 68.1968C126.003 68.5284 126.408 69.0106 126.702 69.6436C126.996 70.2765 127.143 71.0443 127.145 71.947C127.146 72.8497 127.001 73.6181 126.709 74.2521C126.417 74.8862 126.014 75.37 125.5 75.7036C124.985 76.0371 124.408 76.2046 123.766 76.2058ZM123.765 75.1487C124.2 75.1478 124.58 75.0283 124.904 74.7901C125.237 74.5519 125.493 74.1951 125.675 73.7196C125.864 73.2442 125.958 72.654 125.957 71.9493C125.956 71.2445 125.86 70.6548 125.669 70.1801C125.486 69.7053 125.229 69.3495 124.896 69.1126C124.571 68.8757 124.19 68.7576 123.755 68.7585C123.319 68.7593 122.935 68.8789 122.603 69.1171C122.271 69.3553 122.01 69.7121 121.821 70.1876C121.639 70.663 121.549 71.2532 121.55 71.9579C121.552 72.6626 121.643 73.2524 121.826 73.7271C122.017 74.2019 122.279 74.5577 122.612 74.7946C122.945 75.0315 123.329 75.1495 123.765 75.1487ZM131.689 76.1903C131.039 76.1916 130.457 76.0265 129.942 75.6949C129.434 75.3633 129.03 74.8811 128.728 74.2482C128.434 73.6153 128.286 72.8475 128.285 71.9447C128.284 71.042 128.429 70.2737 128.721 69.6396C129.021 69.0055 129.424 68.5217 129.93 68.1882C130.444 67.8546 131.026 67.6872 131.676 67.6859C132.317 67.6846 132.895 67.8498 133.41 68.1814C133.926 68.5129 134.33 68.9952 134.624 69.6281C134.918 70.261 135.066 71.0288 135.067 71.9315C135.069 72.8342 134.923 73.6026 134.631 74.2366C134.339 74.8707 133.936 75.3545 133.422 75.6881C132.908 76.0217 132.33 76.1891 131.689 76.1903ZM131.687 75.1332C132.122 75.1324 132.502 75.0129 132.827 74.7747C133.159 74.5365 133.416 74.1796 133.597 73.7042C133.786 73.2287 133.881 72.6386 133.879 71.9338C133.878 71.2291 133.782 70.6393 133.592 70.1646C133.409 69.6898 133.151 69.334 132.818 69.0971C132.493 68.8602 132.113 68.7422 131.677 68.743C131.242 68.7439 130.858 68.8634 130.526 69.1016C130.193 69.3398 129.933 69.6966 129.743 70.1721C129.562 70.6476 129.472 71.2377 129.473 71.9424C129.474 72.6472 129.566 73.2369 129.749 73.7117C129.939 74.1864 130.201 74.5422 130.534 74.7791C130.867 75.016 131.251 75.1341 131.687 75.1332ZM139.611 76.1749C138.962 76.1761 138.379 76.011 137.864 75.6794C137.357 75.3478 136.952 74.8656 136.65 74.2327C136.356 73.5998 136.209 72.832 136.207 71.9293C136.206 71.0266 136.351 70.2582 136.643 69.6241C136.943 68.9901 137.346 68.5063 137.853 68.1727C138.367 67.8391 138.949 67.6717 139.598 67.6704C140.239 67.6692 140.818 67.8343 141.333 68.1659C141.848 68.4975 142.253 68.9797 142.547 69.6126C142.84 70.2455 142.988 71.0133 142.99 71.916C142.991 72.8187 142.846 73.5871 142.554 74.2212C142.262 74.8552 141.858 75.339 141.344 75.6726C140.83 76.0062 140.252 76.1736 139.611 76.1749ZM139.609 75.1178C140.045 75.1169 140.425 74.9974 140.749 74.7592C141.081 74.521 141.338 74.1642 141.519 73.6887C141.709 73.2132 141.803 72.6231 141.802 71.9184C141.801 71.2136 141.705 70.6239 141.514 70.1491C141.331 69.6744 141.073 69.3185 140.74 69.0816C140.415 68.8447 140.035 68.7267 139.599 68.7275C139.164 68.7284 138.78 68.8479 138.448 69.0861C138.116 69.3243 137.855 69.6812 137.666 70.1566C137.484 70.6321 137.394 71.2222 137.395 71.927C137.396 72.6317 137.488 73.2215 137.671 73.6962C137.862 74.1709 138.124 74.5268 138.457 74.7637C138.79 75.0006 139.174 75.1186 139.609 75.1178ZM148.003 76.0635L147.99 67.749L151.233 67.7427C151.961 67.7413 152.583 67.8549 153.098 68.0835C153.613 68.3122 154.01 68.644 154.287 69.0789C154.565 69.5139 154.705 70.0323 154.706 70.6341C154.706 71.2359 154.569 71.7548 154.292 72.1909C154.016 72.619 153.62 72.9524 153.106 73.191C152.592 73.4216 151.97 73.5376 151.242 73.539L148.652 73.5441L149.186 72.9848L149.191 76.0611L148.003 76.0635ZM149.186 73.1036L148.651 72.5107L151.204 72.5058C151.965 72.5043 152.538 72.3408 152.926 72.0154C153.321 71.69 153.519 71.2303 153.518 70.6364C153.517 70.0425 153.318 69.5837 152.922 69.2598C152.533 68.9359 151.959 68.7747 151.199 68.7761L148.645 68.7811L149.179 68.1862L149.186 73.1036ZM159.013 76.1132C158.372 76.1145 157.798 75.977 157.29 75.7009C156.791 75.4247 156.399 75.0454 156.113 74.5629C155.827 74.0804 155.684 73.5264 155.683 72.9009C155.682 72.2753 155.823 71.7207 156.108 71.2371C156.392 70.7536 156.783 70.3767 157.282 70.1065C157.788 69.8283 158.362 69.6886 159.003 69.6874C159.574 69.6863 160.08 69.8001 160.524 70.0289C160.976 70.2497 161.325 70.5816 161.571 71.0245L160.705 71.5845C160.498 71.2761 160.245 71.0509 159.944 70.9089C159.65 70.7591 159.334 70.6845 158.993 70.6851C158.581 70.6859 158.213 70.7777 157.889 70.9605C157.564 71.1432 157.307 71.4011 157.118 71.734C156.928 72.0591 156.834 72.4473 156.835 72.8986C156.835 73.35 156.931 73.7417 157.122 74.0739C157.312 74.4062 157.57 74.663 157.895 74.8445C158.22 75.026 158.588 75.1163 159 75.1155C159.34 75.1149 159.657 75.043 159.95 74.8999C160.25 74.7488 160.503 74.5187 160.709 74.2095L161.577 74.7542C161.332 75.1902 160.984 75.5274 160.533 75.7658C160.09 75.9963 159.583 76.1121 159.013 76.1132ZM164.861 76.1018C164.338 76.1028 163.839 76.0325 163.364 75.8909C162.896 75.7493 162.528 75.5758 162.258 75.3705L162.732 74.4668C163.001 74.6484 163.334 74.8022 163.73 74.9281C164.126 75.054 164.53 75.1166 164.942 75.1158C165.473 75.1148 165.853 75.0388 166.082 74.8879C166.319 74.737 166.438 74.5269 166.437 74.2577C166.437 74.0597 166.366 73.9054 166.223 73.7949C166.08 73.6843 165.89 73.6015 165.652 73.5465C165.423 73.4916 165.165 73.4446 164.88 73.4055C164.595 73.3586 164.31 73.3037 164.025 73.2409C163.74 73.1702 163.478 73.0757 163.24 72.9574C163.003 72.8311 162.812 72.6613 162.669 72.4477C162.527 72.2263 162.455 71.9334 162.454 71.5692C162.454 71.1891 162.56 70.8563 162.773 70.5708C162.987 70.2854 163.287 70.067 163.675 69.9158C164.071 69.7567 164.538 69.6766 165.076 69.6755C165.488 69.6747 165.904 69.7254 166.324 69.8275C166.751 69.9217 167.1 70.0596 167.37 70.2412L166.884 71.1448C166.599 70.9553 166.302 70.8253 165.993 70.7546C165.684 70.6839 165.375 70.6489 165.066 70.6495C164.567 70.6505 164.195 70.7344 163.95 70.9011C163.705 71.06 163.582 71.2661 163.583 71.5195C163.583 71.7333 163.654 71.8994 163.797 72.0179C163.948 72.1285 164.138 72.2152 164.368 72.2781C164.605 72.341 164.867 72.3959 165.152 72.4429C165.437 72.4819 165.722 72.5368 166.007 72.6075C166.292 72.6703 166.55 72.7609 166.78 72.8792C167.018 72.9975 167.208 73.1634 167.351 73.3769C167.501 73.5904 167.577 73.8754 167.578 74.2317C167.578 74.6118 167.468 74.9406 167.247 75.2182C167.025 75.4958 166.713 75.7141 166.309 75.8733C165.906 76.0245 165.423 76.1007 164.861 76.1018ZM169.389 78.326L168.308 78.3281C168.79 77.4878 169.141 76.6121 169.361 75.7011C169.582 74.7821 169.691 73.8039 169.689 72.7666C169.688 71.7293 169.575 70.7555 169.352 69.8453C169.129 68.9272 168.775 68.0489 168.291 67.2105L169.372 67.2084C169.84 67.9123 170.194 68.743 170.433 69.7007C170.68 70.6504 170.804 71.6717 170.806 72.7644C170.808 73.8572 170.686 74.8789 170.442 75.8296C170.206 76.7724 169.855 77.6045 169.389 78.326Z" fill="black"/>
<path d="M177.262 71.5967H207.692" stroke="url(#paint0_linear_1877_321)" stroke-width="0.863039"/>
<path d="M30.4316 72.8271H0.00118542" stroke="url(#paint1_linear_1877_321)" stroke-width="0.863039"/>
<defs>
<linearGradient id="paint0_linear_1877_321" x1="203.128" y1="72.0966" x2="177.769" y2="72.0967" gradientUnits="userSpaceOnUse">
<stop stop-color="#666666" stop-opacity="0"/>
<stop offset="1"/>
</linearGradient>
<linearGradient id="paint1_linear_1877_321" x1="4.56575" y1="73.3271" x2="29.9245" y2="73.3271" gradientUnits="userSpaceOnUse">
<stop stop-color="#666666" stop-opacity="0"/>
<stop offset="1"/>
</linearGradient>
</defs>
</svg>
